<svg xmlns="http://www.w3.org/2000/svg" xmlns:xlink="http://www.w3.org/1999/xlink" viewBox="0 0 500 500"><defs><clipPath id="freepik--clip-path--inject-114"><path d="M163.24,235.29s.86,14.86.21,18.74,0,4.52-11.41.64-18.31-2.58-22.83,9.05,15.29,85.72,15.93,87.87-7.1,21.32-12.7,40.71-8.83,36.4-8.83,36.4H227.42s-3.66-27.14-9.48-43.73-12.49-38.55-12.49-38.55,12.92-62.89,10.55-77.53-9-16.59-16.8-16.59a50.23,50.23,0,0,0-15.29,2.8l.65-15.29S165.39,240.24,163.24,235.29Z" style="fill:#DDA217;stroke:#263238;stroke-linecap:round;stroke-linejoin:round"></path></clipPath><clipPath id="freepik--clip-path-2--inject-114"><path d="M194.47,253s12.92-8.4,20.89-2.59,4.74,24.34,4.74,35.76,2.15,35.75.43,44.36-5,12.71-9.48,13.36-9.91-4.09-9.91-15.29-2.15-40.28-2.37-46.1-1.5-14.43-1.5-14.43" style="fill:#DDA217;stroke:#263238;stroke-linecap:round;stroke-linejoin:round"></path></clipPath><clipPath id="freepik--clip-path-3--inject-114"><path d="M151.18,256.61a16.56,16.56,0,0,0-12.5-4.52c-7.53.64-14,6.46-15.07,17s21.32,68.49,25.2,73.23,7.32,6.68,13.13,5.17,6-26.92,1.94-38.55-12.27-37.26-12.27-37.26" style="fill:#DDA217;stroke:#263238;stroke-linecap:round;stroke-linejoin:round"></path></clipPath><clipPath id="freepik--clip-path-4--inject-114"><path d="M121.24,129.32l14,56.22s4.95,3.87,24.33-7.54,8.84-18.74,8.84-18.74Z" style="fill:#fff;stroke:#263238;stroke-linecap:round;stroke-linejoin:round"></path></clipPath></defs><g id="freepik--background-simple--inject-114"><path d="M67.84,286.83s9.2,69.83,72.13,110,144,34.3,209.87,31.34,112.37-45.81,114.37-102.83-49.61-67.85-83.07-128.71-33.13-82.15-94.39-115-148.6,1.48-189,74.17S67.84,286.83,67.84,286.83Z" style="fill:#DDA217"></path><path d="M67.84,286.83s9.2,69.83,72.13,110,144,34.3,209.87,31.34,112.37-45.81,114.37-102.83-49.61-67.85-83.07-128.71-33.13-82.15-94.39-115-148.6,1.48-189,74.17S67.84,286.83,67.84,286.83Z" style="fill:#fff;opacity:0.7000000000000001"></path></g><g id="freepik--Pictures--inject-114"><rect x="223.88" y="162.4" width="55.02" height="81.1" style="fill:#DDA217"></rect><rect x="223.88" y="162.4" width="55.02" height="81.1" style="fill:#fff;opacity:0.5"></rect><rect x="230.52" y="172.19" width="41.74" height="61.52" style="fill:#fff"></rect><rect x="137.88" y="83.4" width="77.33" height="114" style="fill:#DDA217"></rect><rect x="137.88" y="83.4" width="77.33" height="114" style="fill:#fff;opacity:0.5"></rect><rect x="147.21" y="97.16" width="58.67" height="86.48" style="fill:#fff"></rect></g><g id="freepik--birthday-ornament--inject-114"><path d="M49.63,171.74c25.12,6.81,56.36,10,89.45.64,68.55-19.33,111.44-93.11,111.44-93.11" style="fill:none;stroke:#263238;stroke-linecap:round;stroke-linejoin:round"></path><polygon points="123.34 175.25 113.51 203.47 98.88 177.42 123.34 175.25" style="fill:#DDA217"></polygon><polygon points="85.6 177.16 69.48 202.32 61.3 173.59 85.6 177.16" style="fill:#263238"></polygon><polygon points="155.91 165.53 153.4 195.3 132.75 173.7 155.91 165.53" style="fill:#263238"></polygon><polygon points="186.97 148.09 190.31 177.79 165.85 160.63 186.97 148.09" style="fill:#DDA217"></polygon><polygon points="217.1 121.15 227.46 149.18 199.6 138.38 217.1 121.15" style="fill:#263238"></polygon><polygon points="241.68 90.49 256.35 116.52 227.13 110.28 241.68 90.49" style="fill:#DDA217"></polygon><path d="M261.57,78.54S298.39,153.92,378.3,172c21.38,4.84,43.08,4,62.88.49" style="fill:none;stroke:#263238;stroke-linecap:round;stroke-linejoin:round"></path><polygon points="363.09 167.02 340.99 187.13 340.56 157.25 363.09 167.02" style="fill:#DDA217"></polygon><polygon points="329.01 150.7 302.85 165.11 309.37 135.96 329.01 150.7" style="fill:#263238"></polygon><polygon points="294.74 122.77 266 130.93 278.92 103.99 294.74 122.77" style="fill:#DDA217"></polygon><polygon points="396.36 174.02 379.94 198.99 372.11 170.15 396.36 174.02" style="fill:#263238"></polygon><polygon points="431.97 173.52 420.74 201.21 407.43 174.46 431.97 173.52" style="fill:#DDA217"></polygon></g><g id="freepik--Balloons--inject-114"><path d="M424.28,248.58c0,25.13-17,53.93-34.13,53.93S356,273.71,356,248.58s17-42.11,34.13-42.11S424.28,223.45,424.28,248.58Z" style="fill:#DDA217"></path><path d="M424.28,248.58c0,25.13-17,53.93-34.13,53.93S356,273.71,356,248.58s17-42.11,34.13-42.11S424.28,223.45,424.28,248.58Z" style="fill:#fff;opacity:0.30000000000000004"></path><path d="M454.43,309.17c-5.17,20.23-24.78,39.91-38.57,36.38s-21.54-30.2-16.37-50.43,22.35-30.39,36.14-26.87S459.61,288.94,454.43,309.17Z" style="fill:#DDA217"></path><path d="M454.43,309.17c-5.17,20.23-24.78,39.91-38.57,36.38s-21.54-30.2-16.37-50.43,22.35-30.39,36.14-26.87S459.61,288.94,454.43,309.17Z" style="fill:#fff;opacity:0.5"></path><path d="M386.85,295.69c5.67,20.09-1.42,46.95-15.13,50.82s-33.78-15.33-39.45-35.42,4.09-37.51,17.79-41.37S381.18,275.59,386.85,295.69Z" style="fill:#DDA217"></path><path d="M386.85,295.69c5.67,20.09-1.42,46.95-15.13,50.82s-33.78-15.33-39.45-35.42,4.09-37.51,17.79-41.37S381.18,275.59,386.85,295.69Z" style="fill:#fff;opacity:0.5"></path><polyline points="415.86 345.55 390.15 428.84 390.15 302.51" style="fill:none;stroke:#263238;stroke-linecap:round;stroke-linejoin:round"></polyline><line x1="371.72" y1="346.51" x2="390.15" y2="428.84" style="fill:none;stroke:#263238;stroke-linecap:round;stroke-linejoin:round"></line></g><g id="freepik--Plants--inject-114"><path d="M108.72,333.85c.06,0-.16-4.67-.21-5-.5-3.35-3.23-9.29-6.57-9.44-2.41-.11-4.36,2.36-4.45,5.06s1.72,5.18,3.45,6.62C103,332.82,108.72,333.85,108.72,333.85Z" style="fill:#DDA217"></path><path d="M100.71,419.38c1.76,3.66,3.21,6.93,4.34,9.59h2.59c-1.26-2.86-3-6.61-5.17-10.89-.78-1.55-1.64-3.17-2.54-4.84a52.7,52.7,0,0,0,3.74-4.43c2.21,1.19,7.09,1.47,7.73,1.5-.13,1.85-.27,3.65-.42,5.34-.48,5.4-1,10-1.5,13.32h2.24c.4-3.39.88-8,1.25-13.34.13-1.88.25-3.88.34-5.94.65-.16,5.92-1.43,8.06-3.13,1.94-1.54,4.1-4.08,4.38-6.84s-1.34-5.07-3.77-4.83c-3.38.34-6.93,6.44-7.9,9.84-.06.2-.48,2.43-.72,3.84,0-.84.08-1.66.11-2.53.06-1.71.08-3.41.11-5.25,0-.88,0-1.77,0-2.67s-.09-1.83-.13-2.76c-.14-2.14-.38-4.28-.65-6.44,1.3-.09,5.9-.49,8-1.7s4.52-3.38,5.16-6.09-.64-5.34-3-5.52c-3.33-.26-7.59,5.25-9,8.49-.08.2-.87,2.63-1.28,4-.17-1.3-.34-2.59-.55-3.88-.62-3.74-1.35-7.49-2.06-11.24-.22-1.14-.43-2.29-.64-3.44.46,0,5.94-.37,8.29-1.72,2.1-1.21,4.53-3.38,5.16-6.1s-.63-5.33-3-5.52c-3.33-.25-7.59,5.25-9,8.49-.1.25-1.23,3.74-1.48,4.64-.46-2.53-.9-5.05-1.24-7.58a89.09,89.09,0,0,1-.84-10.34c.21,0,5.92-.34,8.33-1.73,2.1-1.2,4.53-3.38,5.16-6.09s-.63-5.34-3-5.52c-3.33-.26-7.59,5.25-9,8.49-.09.21-.95,2.87-1.33,4.14h-.19a69.9,69.9,0,0,1,.81-10.61c.28-1.94.63-3.8,1-5.59,1.06.06,5.91.3,8.17-.69s4.77-2.81,5.65-5.46-.11-5.45-2.45-5.94c-3.24-.68-8,4.31-9.63,7.39-.09.16-.87,2-1.42,3.28.19-.8.36-1.64.55-2.42.7-2.9,1.5-5.53,2.21-7.85.42-1.32.82-2.51,1.2-3.61,1.13-.57,5.63-2.93,7.33-4.93s3.33-4.92,3.09-7.62-2.29-4.51-4.67-3.67c-3.31,1.16-5.71,7.88-6,11.36,0,.3,0,5,0,5l.07,0c-.38,1.06-.79,2.2-1.21,3.45-.76,2.31-1.61,4.94-2.36,7.84a94.85,94.85,0,0,0-2.07,9.46,70.48,70.48,0,0,0-1,10.71v.13c-.28-1.06-1.16-4-1.25-4.18-1.27-3-5.34-7.72-8.69-6.84-2.41.64-3.78,3.56-3.25,6.11s2.89,4.33,5,5.15c2.31.92,7.82.23,8.26.17a89,89,0,0,0,.66,10.75c.24,2.06.54,4.12.86,6.18-.27-.9-.52-1.7-.57-1.81-1.27-3-5.34-7.71-8.69-6.83-2.41.63-3.77,3.55-3.25,6.11s2.89,4.33,5,5.14,6.78.35,8,.21c.13.78.25,1.57.39,2.36.64,3.78,1.29,7.54,1.83,11.27.19,1.31.34,2.62.49,3.93-.24-.8-.45-1.48-.49-1.57-1.28-3-5.35-7.72-8.7-6.84-2.41.64-3.77,3.56-3.25,6.11s2.9,4.33,5,5.15,6.32.39,7.8.23c.12,1.34.24,2.69.3,4,0,.9.1,1.76.08,2.68s0,1.79,0,2.68c-.06,1.71-.12,3.48-.21,5.15-.06,1.16-.14,2.27-.21,3.39-.17-1.32-.57-3.87-.62-4.08a15.73,15.73,0,0,0-4.27-7,5.14,5.14,0,0,0-.32-.91,3.51,3.51,0,0,0-5.68-1.34c-2.85,2.42-3.08,9.45-2.32,12.71,0,.19.74,2.19,1.2,3.44-.37-.68-.72-1.34-1.11-2-.76-1.37-1.56-2.71-2.42-4.15l-1.32-2.06c-.42-.69-1-1.36-1.44-2.05-1.15-1.57-2.38-3.09-3.66-4.59,1.11-.9,5-4.17,6.31-6.46s2.42-5.52,1.68-8-3.13-3.74-5.35-2.35c-3.09,1.94-4.25,8.95-3.93,12.36,0,.21.49,2.6.76,3.9-.77-.89-1.54-1.78-2.35-2.65-2.35-2.51-4.79-5-7.23-7.42l-2.21-2.26c.4-.32,5.11-4.1,6.56-6.66,1.28-2.28,2.41-5.53,1.67-8s-3.13-3.74-5.35-2.35c-3.09,1.94-4.24,8.95-3.93,12.36,0,.25.7,3.69.91,4.55-1.62-1.67-3.22-3.35-4.74-5.09a68.82,68.82,0,0,1-5.72-7.5c.19-.15,5.12-4.07,6.6-6.69,1.29-2.28,2.42-5.53,1.68-8.05s-3.13-3.73-5.35-2.34c-3.09,1.93-4.24,8.94-3.93,12.35,0,.23.53,2.85.8,4.08l-.17.11a53.8,53.8,0,0,1-4.37-8.76c-.69-1.69-1.26-3.36-1.78-5,1-.63,5.4-3.55,6.95-5.77s2.9-5.25,2.41-7.87-2.71-4.16-5-3c-3.22,1.55-5,8.45-5,11.91,0,.19.17,2.09.32,3.47-.23-.75-.47-1.51-.67-2.24-.77-2.7-1.33-5.26-1.8-7.52-.26-1.3-.48-2.47-.66-3.58.72-1.16,3.61-5.88,4.16-8.52s.6-6-.9-7.91a3.63,3.63,0,0,0-5.93.14c-2.38,3-1.31,9.79.07,12.71.11.26,2.39,3.91,2.43,3.85l0-.07c.16,1.07.35,2.21.57,3.46.44,2.28.94,4.86,1.66,7.61a81.88,81.88,0,0,0,2.7,8.68,55.15,55.15,0,0,0,4.22,9l.07.1c-.76-.64-2.94-2.34-3.12-2.45-2.57-1.5-8.46-2.57-11,.26a5.06,5.06,0,0,0,0,6.84c1.72,1.68,4.65,1.51,6.88.82,2.5-.77,7.07-4.83,7.44-5.16a67.33,67.33,0,0,0,5.74,7.93c1.2,1.45,2.46,2.86,3.74,4.26-.68-.53-1.28-1-1.38-1.05-2.57-1.51-8.46-2.57-11,.26a5,5,0,0,0,0,6.83c1.72,1.69,4.65,1.52,6.87.83s6.21-4.07,7.25-5l1.47,1.59c2.39,2.52,4.78,5,7,7.58.81.9,1.56,1.82,2.32,2.74-.6-.47-1.11-.86-1.19-.91-2.57-1.5-8.46-2.56-11,.27a5.06,5.06,0,0,0,0,6.83c1.73,1.68,4.66,1.51,6.88.83s5.82-3.75,7.06-4.83c.75,1,1.5,1.95,2.19,2.93.45.69.93,1.31,1.35,2l1.28,2.09c.77,1.37,1.57,2.78,2.28,4.14.51.94,1,1.85,1.45,2.76-.79-.9-2.37-2.63-2.51-2.76-2.31-2-7.9-4.07-10.76-1.68a5.23,5.23,0,0,0-.87,6.87c1.46,2,4.33,2.33,6.58,2,2.48-.33,7.28-3.45,7.88-3.84C99.29,416.47,100,418,100.71,419.38Z" style="fill:#DDA217"></path><path d="M51.23,360.12c2.63,0,8.23-2.87,8.24-2.88s-2.39-3.52-2.57-3.72c-2.06-2.28-7.34-5.14-10.39-3.12A5.3,5.3,0,0,0,45,357.18C46.2,359.39,49,360.11,51.23,360.12Z" style="fill:#DDA217"></path><g style="opacity:0.5"><path d="M108.72,333.85c.06,0-.16-4.67-.21-5-.5-3.35-3.23-9.29-6.57-9.44-2.41-.11-4.36,2.36-4.45,5.06s1.72,5.18,3.45,6.62C103,332.82,108.72,333.85,108.72,333.85Z" style="fill:#fff"></path><path d="M100.71,419.38c1.76,3.66,3.21,6.93,4.34,9.59h2.59c-1.26-2.86-3-6.61-5.17-10.89-.78-1.55-1.64-3.17-2.54-4.84a52.7,52.7,0,0,0,3.74-4.43c2.21,1.19,7.09,1.47,7.73,1.5-.13,1.85-.27,3.65-.42,5.34-.48,5.4-1,10-1.5,13.32h2.24c.4-3.39.88-8,1.25-13.34.13-1.88.25-3.88.34-5.94.65-.16,5.92-1.43,8.06-3.13,1.94-1.54,4.1-4.08,4.38-6.84s-1.34-5.07-3.77-4.83c-3.38.34-6.93,6.44-7.9,9.84-.06.2-.48,2.43-.72,3.84,0-.84.08-1.66.11-2.53.06-1.71.08-3.41.11-5.25,0-.88,0-1.77,0-2.67s-.09-1.83-.13-2.76c-.14-2.14-.38-4.28-.65-6.44,1.3-.09,5.9-.49,8-1.7s4.52-3.38,5.16-6.09-.64-5.34-3-5.52c-3.33-.26-7.59,5.25-9,8.49-.08.2-.87,2.63-1.28,4-.17-1.3-.34-2.59-.55-3.88-.62-3.74-1.35-7.49-2.06-11.24-.22-1.14-.43-2.29-.64-3.44.46,0,5.94-.37,8.29-1.72,2.1-1.21,4.53-3.38,5.16-6.1s-.63-5.33-3-5.52c-3.33-.25-7.59,5.25-9,8.49-.1.25-1.23,3.74-1.48,4.64-.46-2.53-.9-5.05-1.24-7.58a89.09,89.09,0,0,1-.84-10.34c.21,0,5.92-.34,8.33-1.73,2.1-1.2,4.53-3.38,5.16-6.09s-.63-5.34-3-5.52c-3.33-.26-7.59,5.25-9,8.49-.09.21-.95,2.87-1.33,4.14h-.19a69.9,69.9,0,0,1,.81-10.61c.28-1.94.63-3.8,1-5.59,1.06.06,5.91.3,8.17-.69s4.77-2.81,5.65-5.46-.11-5.45-2.45-5.94c-3.24-.68-8,4.31-9.63,7.39-.09.16-.87,2-1.42,3.28.19-.8.36-1.64.55-2.42.7-2.9,1.5-5.53,2.21-7.85.42-1.32.82-2.51,1.2-3.61,1.13-.57,5.63-2.93,7.33-4.93s3.33-4.92,3.09-7.62-2.29-4.51-4.67-3.67c-3.31,1.16-5.71,7.88-6,11.36,0,.3,0,5,0,5l.07,0c-.38,1.06-.79,2.2-1.21,3.45-.76,2.31-1.61,4.94-2.36,7.84a94.85,94.85,0,0,0-2.07,9.46,70.48,70.48,0,0,0-1,10.71v.13c-.28-1.06-1.16-4-1.25-4.18-1.27-3-5.34-7.72-8.69-6.84-2.41.64-3.78,3.56-3.25,6.11s2.89,4.33,5,5.15c2.31.92,7.82.23,8.26.17a89,89,0,0,0,.66,10.75c.24,2.06.54,4.12.86,6.18-.27-.9-.52-1.7-.57-1.81-1.27-3-5.34-7.71-8.69-6.83-2.41.63-3.77,3.55-3.25,6.11s2.89,4.33,5,5.14,6.78.35,8,.21c.13.78.25,1.57.39,2.36.64,3.78,1.29,7.54,1.83,11.27.19,1.31.34,2.62.49,3.93-.24-.8-.45-1.48-.49-1.57-1.28-3-5.35-7.72-8.7-6.84-2.41.64-3.77,3.56-3.25,6.11s2.9,4.33,5,5.15,6.32.39,7.8.23c.12,1.34.24,2.69.3,4,0,.9.1,1.76.08,2.68s0,1.79,0,2.68c-.06,1.71-.12,3.48-.21,5.15-.06,1.16-.14,2.27-.21,3.39-.17-1.32-.57-3.87-.62-4.08a15.73,15.73,0,0,0-4.27-7,5.14,5.14,0,0,0-.32-.91,3.51,3.51,0,0,0-5.68-1.34c-2.85,2.42-3.08,9.45-2.32,12.71,0,.19.74,2.19,1.2,3.44-.37-.68-.72-1.34-1.11-2-.76-1.37-1.56-2.71-2.42-4.15l-1.32-2.06c-.42-.69-1-1.36-1.44-2.05-1.15-1.57-2.38-3.09-3.66-4.59,1.11-.9,5-4.17,6.31-6.46s2.42-5.52,1.68-8-3.13-3.74-5.35-2.35c-3.09,1.94-4.25,8.95-3.93,12.36,0,.21.49,2.6.76,3.9-.77-.89-1.54-1.78-2.35-2.65-2.35-2.51-4.79-5-7.23-7.42l-2.21-2.26c.4-.32,5.11-4.1,6.56-6.66,1.28-2.28,2.41-5.53,1.67-8s-3.13-3.74-5.35-2.35c-3.09,1.94-4.24,8.95-3.93,12.36,0,.25.7,3.69.91,4.55-1.62-1.67-3.22-3.35-4.74-5.09a68.82,68.82,0,0,1-5.72-7.5c.19-.15,5.12-4.07,6.6-6.69,1.29-2.28,2.42-5.53,1.68-8.05s-3.13-3.73-5.35-2.34c-3.09,1.93-4.24,8.94-3.93,12.35,0,.23.53,2.85.8,4.08l-.17.11a53.8,53.8,0,0,1-4.37-8.76c-.69-1.69-1.26-3.36-1.78-5,1-.63,5.4-3.55,6.95-5.77s2.9-5.25,2.41-7.87-2.71-4.16-5-3c-3.22,1.55-5,8.45-5,11.91,0,.19.17,2.09.32,3.47-.23-.75-.47-1.51-.67-2.24-.77-2.7-1.33-5.26-1.8-7.52-.26-1.3-.48-2.47-.66-3.58.72-1.16,3.61-5.88,4.16-8.52s.6-6-.9-7.91a3.63,3.63,0,0,0-5.93.14c-2.38,3-1.31,9.79.07,12.71.11.26,2.39,3.91,2.43,3.85l0-.07c.16,1.07.35,2.21.57,3.46.44,2.28.94,4.86,1.66,7.61a81.88,81.88,0,0,0,2.7,8.68,55.15,55.15,0,0,0,4.22,9l.07.1c-.76-.64-2.94-2.34-3.12-2.45-2.57-1.5-8.46-2.57-11,.26a5.06,5.06,0,0,0,0,6.84c1.72,1.68,4.65,1.51,6.88.82,2.5-.77,7.07-4.83,7.44-5.16a67.33,67.33,0,0,0,5.74,7.93c1.2,1.45,2.46,2.86,3.74,4.26-.68-.53-1.28-1-1.38-1.05-2.57-1.51-8.46-2.57-11,.26a5,5,0,0,0,0,6.83c1.72,1.69,4.65,1.52,6.87.83s6.21-4.07,7.25-5l1.47,1.59c2.39,2.52,4.78,5,7,7.58.81.9,1.56,1.82,2.32,2.74-.6-.47-1.11-.86-1.19-.91-2.57-1.5-8.46-2.56-11,.27a5.06,5.06,0,0,0,0,6.83c1.73,1.68,4.66,1.51,6.88.83s5.82-3.75,7.06-4.83c.75,1,1.5,1.95,2.19,2.93.45.69.93,1.31,1.35,2l1.28,2.09c.77,1.37,1.57,2.78,2.28,4.14.51.94,1,1.85,1.45,2.76-.79-.9-2.37-2.63-2.51-2.76-2.31-2-7.9-4.07-10.76-1.68a5.23,5.23,0,0,0-.87,6.87c1.46,2,4.33,2.33,6.58,2,2.48-.33,7.28-3.45,7.88-3.84C99.29,416.47,100,418,100.71,419.38Z" style="fill:#fff"></path><path d="M51.23,360.12c2.63,0,8.23-2.87,8.24-2.88s-2.39-3.52-2.57-3.72c-2.06-2.28-7.34-5.14-10.39-3.12A5.3,5.3,0,0,0,45,357.18C46.2,359.39,49,360.11,51.23,360.12Z" style="fill:#fff"></path></g></g><g id="freepik--Cake--inject-114"><path d="M292.46,410.17s5.17,3.23,4.09,15.08H306S305,415.34,310.55,410Z" style="fill:#fff;stroke:#263238;stroke-linecap:round;stroke-linejoin:round"></path><rect x="280.19" y="424.39" width="42.18" height="4.74" style="fill:#fff;stroke:#263238;stroke-linecap:round;stroke-linejoin:round"></rect><path d="M277.73,281s-3.93,22.31-.93,39.19h3.56A196.25,196.25,0,0,0,277.73,281Z" style="fill:#fff;stroke:#263238;stroke-linecap:round;stroke-linejoin:round"></path><path d="M277.73,281s-3.74-3-2.24-6.75a34.67,34.67,0,0,1,3.18-6.19s.56,3.94,1.31,7.32S277.73,281,277.73,281Z" style="fill:#DDA217"></path><path d="M289.73,281s-3.93,22.31-.93,39.19h3.56A196.25,196.25,0,0,0,289.73,281Z" style="fill:#fff;stroke:#263238;stroke-linecap:round;stroke-linejoin:round"></path><path d="M289.73,281s-3.75-3-2.25-6.75a34.26,34.26,0,0,1,3.19-6.19s.56,3.94,1.31,7.32S289.73,281,289.73,281Z" style="fill:#DDA217"></path><path d="M301.73,281s-3.93,22.31-.93,39.19h3.56A196.25,196.25,0,0,0,301.73,281Z" style="fill:#fff;stroke:#263238;stroke-linecap:round;stroke-linejoin:round"></path><path d="M301.73,281s-3.75-3-2.25-6.75a34.26,34.26,0,0,1,3.19-6.19s.56,3.94,1.31,7.32S301.73,281,301.73,281Z" style="fill:#DDA217"></path><path d="M313.73,281s-3.93,22.31-.94,39.19h3.57A197.12,197.12,0,0,0,313.73,281Z" style="fill:#fff;stroke:#263238;stroke-linecap:round;stroke-linejoin:round"></path><path d="M313.73,281s-3.75-3-2.25-6.75a34.26,34.26,0,0,1,3.19-6.19s.56,3.94,1.31,7.32S313.73,281,313.73,281Z" style="fill:#DDA217"></path><path d="M325.73,281s-3.94,22.31-.94,39.19h3.57A197.12,197.12,0,0,0,325.73,281Z" style="fill:#fff;stroke:#263238;stroke-linecap:round;stroke-linejoin:round"></path><path d="M325.73,281s-3.75-3-2.25-6.75a34.26,34.26,0,0,1,3.19-6.19s.56,3.94,1.31,7.32S325.73,281,325.73,281Z" style="fill:#DDA217"></path><path d="M268.68,316.05H335a4.33,4.33,0,0,1,4.33,4.33v32.28a0,0,0,0,1,0,0h-75a0,0,0,0,1,0,0V320.38A4.33,4.33,0,0,1,268.68,316.05Z" style="fill:#DDA217;stroke:#263238;stroke-linecap:round;stroke-linejoin:round"></path><path d="M334,316.05H269.62a5.26,5.26,0,0,0-5.26,5.27v14.76h1a6.87,6.87,0,0,0,6.87-6.86v-.14a4.63,4.63,0,0,1,9.26,0v6a3.77,3.77,0,0,0,7.54,0v-9.36a2.37,2.37,0,0,1,2.37-2.37h3.87a2.37,2.37,0,0,1,2.37,2.37,5,5,0,0,0,9.91,0v-1.08a2.37,2.37,0,1,1,4.74,0v5.92a4.85,4.85,0,1,0,9.69,0v-3.77h4.41a2.27,2.27,0,0,0,2.27-2.26,2.26,2.26,0,0,1,2.26-2.26,2.9,2.9,0,0,1,2.9,2.91v4.05a4.89,4.89,0,0,0,4.89,4.89h.61V321.32A5.27,5.27,0,0,0,334,316.05Z" style="fill:#263238;stroke:#263238;stroke-linecap:round;stroke-linejoin:round"></path><circle cx="302.97" cy="340.09" r="2.9" style="fill:#fff;stroke:#263238;stroke-linecap:round;stroke-linejoin:round"></circle><path d="M287.65,321.45a2.9,2.9,0,1,0-2.9,2.9A2.9,2.9,0,0,0,287.65,321.45Z" style="fill:#fff;stroke:#263238;stroke-linecap:round;stroke-linejoin:round"></path><circle cx="332.39" cy="339.26" r="2.07" style="fill:#fff;stroke:#263238;stroke-linecap:round;stroke-linejoin:round"></circle><circle cx="314.87" cy="320.15" r="2.07" style="fill:#fff;stroke:#263238;stroke-linecap:round;stroke-linejoin:round"></circle><path d="M274.8,343a2.07,2.07,0,1,0-2.07,2.07A2.07,2.07,0,0,0,274.8,343Z" style="fill:#fff;stroke:#263238;stroke-linecap:round;stroke-linejoin:round"></path><circle cx="333.22" cy="326.83" r="2.07" style="fill:#fff;stroke:#263238;stroke-linecap:round;stroke-linejoin:round"></circle><circle cx="281.43" cy="332.22" r="2.07" style="fill:#fff;stroke:#263238;stroke-linecap:round;stroke-linejoin:round"></circle><path d="M253.76,350.51H349.9a6.74,6.74,0,0,1,6.74,6.74V407.8a0,0,0,0,1,0,0H247a0,0,0,0,1,0,0V357.26A6.74,6.74,0,0,1,253.76,350.51Z" style="fill:#DDA217;stroke:#263238;stroke-linecap:round;stroke-linejoin:round"></path><path d="M348.44,350.51H255.22a8.21,8.21,0,0,0-8.2,8.21v26.69h2.6A5.38,5.38,0,0,0,255,380V369.57a2.26,2.26,0,1,1,4.52,0V373a4.63,4.63,0,0,0,9.26,0v-5.71a5,5,0,0,1,5-4.95h0a5,5,0,0,1,5,4.95v13a4.85,4.85,0,1,0,9.69,0V367a.75.75,0,0,1,.75-.75h0a7,7,0,0,0,7-7,1.83,1.83,0,0,1,1.83-1.83h4.91a4.89,4.89,0,0,1,4.89,4.89V368a3.24,3.24,0,0,0,6.47,0v-1.14a4.89,4.89,0,0,1,4.89-4.89h.72a6.45,6.45,0,0,1,6.45,6.45v7.87a3.12,3.12,0,0,0,6.24,0v-6.57a5.17,5.17,0,0,1,10.34,0V383.9a2.8,2.8,0,0,0,5.6,0V375a6.61,6.61,0,0,1,6.6-6.6h1.58v-9.67A8.21,8.21,0,0,0,348.44,350.51Z" style="fill:#263238;stroke:#263238;stroke-linecap:round;stroke-linejoin:round"></path><path d="M262.79,391.46a2.9,2.9,0,1,0-2.9,2.9A2.9,2.9,0,0,0,262.79,391.46Z" style="fill:#fff;stroke:#263238;stroke-linecap:round;stroke-linejoin:round"></path><path d="M284.33,371.16a2.9,2.9,0,1,0-2.9,2.9A2.9,2.9,0,0,0,284.33,371.16Z" style="fill:#fff;stroke:#263238;stroke-linecap:round;stroke-linejoin:round"></path><circle cx="312.92" cy="387.32" r="2.9" style="fill:#fff;stroke:#263238;stroke-linecap:round;stroke-linejoin:round"></circle><circle cx="352.69" cy="366.19" r="2.9" style="fill:#fff;stroke:#263238;stroke-linecap:round;stroke-linejoin:round"></circle><path d="M293.86,393.12a2.07,2.07,0,1,0-2.07,2.07A2.07,2.07,0,0,0,293.86,393.12Z" style="fill:#fff;stroke:#263238;stroke-linecap:round;stroke-linejoin:round"></path><path d="M267.34,369.09a2.07,2.07,0,1,0-2.07,2.07A2.07,2.07,0,0,0,267.34,369.09Z" style="fill:#fff;stroke:#263238;stroke-linecap:round;stroke-linejoin:round"></path><circle cx="276.87" cy="388.15" r="2.07" style="fill:#fff;stroke:#263238;stroke-linecap:round;stroke-linejoin:round"></circle><path d="M308,370.75a2.08,2.08,0,1,0-2.07,2.07A2.07,2.07,0,0,0,308,370.75Z" style="fill:#fff;stroke:#263238;stroke-linecap:round;stroke-linejoin:round"></path><circle cx="322.45" cy="396.85" r="2.07" style="fill:#fff;stroke:#263238;stroke-linecap:round;stroke-linejoin:round"></circle><path d="M339.43,392.71a2.07,2.07,0,1,0-2.07,2.07A2.07,2.07,0,0,0,339.43,392.71Z" style="fill:#fff;stroke:#263238;stroke-linecap:round;stroke-linejoin:round"></path><path d="M294.69,357.49a2.07,2.07,0,1,0-2.07,2.07A2.07,2.07,0,0,0,294.69,357.49Z" style="fill:#fff;stroke:#263238;stroke-linecap:round;stroke-linejoin:round"></path><circle cx="330.32" cy="359.98" r="2.07" style="fill:#fff;stroke:#263238;stroke-linecap:round;stroke-linejoin:round"></circle><rect x="241.2" y="405.22" width="119.32" height="5.82" style="fill:#fff;stroke:#263238;stroke-linecap:round;stroke-linejoin:round"></rect></g><g id="freepik--Character--inject-114"><path d="M143.85,209s.43,23.05-2.37,29.08a59.81,59.81,0,0,1-3.87,7.54,7.07,7.07,0,0,0-8.83-2.37c-5.82,2.37-13.79,9.47-11.2,22.4s20.89,22.61,44.79,25.41,41.14-19.38,42.65-29.51-5.39-42.64-7.32-59-20.25-25.41-34.46-24.77S143.85,209,143.85,209Z" style="fill:#263238;stroke:#263238;stroke-linecap:round;stroke-linejoin:round"></path><path d="M163.24,235.29s.86,14.86.21,18.74,0,4.52-11.41.64-18.31-2.58-22.83,9.05,15.29,85.72,15.93,87.87-7.1,21.32-12.7,40.71-8.83,36.4-8.83,36.4H227.42s-3.66-27.14-9.48-43.73-12.49-38.55-12.49-38.55,12.92-62.89,10.55-77.53-9-16.59-16.8-16.59a50.23,50.23,0,0,0-15.29,2.8l.65-15.29S165.39,240.24,163.24,235.29Z" style="fill:#DDA217"></path><g style="clip-path:url(#freepik--clip-path--inject-114)"><path d="M223.88,410.4a1.34,1.34,0,0,0,.46-.09c-.16-.83-.32-1.66-.5-2.51a1.3,1.3,0,0,0,0,2.6Z" style="fill:#fff"></path><path d="M223.88,416.08a1.31,1.31,0,1,0,1.31,1.31A1.31,1.31,0,0,0,223.88,416.08Z" style="fill:#fff"></path><path d="M225.21,415c-.22-1.22-.46-2.49-.7-3.79a2.17,2.17,0,1,0,.7,3.79Z" style="fill:#fff"></path><circle cx="220.95" cy="416.17" r="1.3" style="fill:#fff"></circle><circle cx="219.74" cy="413.24" r="1.3" style="fill:#fff"></circle><path d="M221.88,411.24a1.31,1.31,0,1,0-1.85,0A1.33,1.33,0,0,0,221.88,411.24Z" style="fill:#fff"></path><path d="M198.07,252.33c-.67,0-1.34.06-2,.12a1.27,1.27,0,0,0,2-.12Z" style="fill:#fff"></path><path d="M194.81,252.57c-1.21.15-2.37.34-3.47.55a2.19,2.19,0,0,0,1.54.63A2.17,2.17,0,0,0,194.81,252.57Z" style="fill:#fff"></path><path d="M190.88,255.43a1.31,1.31,0,0,0,0-1.85,1.37,1.37,0,0,0-.44-.28c-.5.1-1,.21-1.43.32a1.3,1.3,0,0,0,1.87,1.81Z" style="fill:#fff"></path><path d="M194.89,255.43a1.31,1.31,0,0,0,1.85-1.85,1.33,1.33,0,0,0-1.85,0A1.31,1.31,0,0,0,194.89,255.43Z" style="fill:#fff"></path><path d="M192.88,257a1.31,1.31,0,1,0,0-2.61,1.31,1.31,0,0,0,0,2.61Z" style="fill:#fff"></path><circle cx="189.95" cy="286.84" r="1.3" style="fill:#fff"></circle><path d="M196.74,281.9a1.3,1.3,0,1,0-1.85,0A1.3,1.3,0,0,0,196.74,281.9Z" style="fill:#fff"></path><path d="M197,282.61a1.3,1.3,0,1,0,1.3,1.3A1.31,1.31,0,0,0,197,282.61Z" style="fill:#fff"></path><path d="M192.88,289.36a1.31,1.31,0,1,0-1.3-1.31A1.31,1.31,0,0,0,192.88,289.36Z" style="fill:#fff"></path><path d="M196.74,285.92a1.3,1.3,0,1,0,0,1.84A1.31,1.31,0,0,0,196.74,285.92Z" style="fill:#fff"></path><path d="M192.88,281.73a2.18,2.18,0,1,0,2.18,2.18A2.18,2.18,0,0,0,192.88,281.73Z" style="fill:#fff"></path><circle cx="188.74" cy="283.91" r="1.3" style="fill:#fff"></circle><path d="M192.88,281.07a1.31,1.31,0,1,0-1.3-1.3A1.31,1.31,0,0,0,192.88,281.07Z" style="fill:#fff"></path><path d="M190.88,281.9a1.3,1.3,0,1,0-1.85,0A1.3,1.3,0,0,0,190.88,281.9Z" style="fill:#fff"></path><path d="M210.9,268.07a2.18,2.18,0,1,0-2.18-2.17A2.17,2.17,0,0,0,210.9,268.07Z" style="fill:#fff"></path><path d="M208.89,263.89a1.31,1.31,0,1,0-1.85,0A1.31,1.31,0,0,0,208.89,263.89Z" style="fill:#fff"></path><path d="M210.9,271.35a1.31,1.31,0,1,0-1.31-1.31A1.31,1.31,0,0,0,210.9,271.35Z" style="fill:#fff"></path><path d="M208.89,269.75a1.31,1.31,0,0,0,0-1.85,1.33,1.33,0,0,0-1.85,0,1.31,1.31,0,1,0,1.85,1.85Z" style="fill:#fff"></path><path d="M214.75,267.9a1.3,1.3,0,1,0-1.84,1.85,1.3,1.3,0,0,0,1.84-1.85Z" style="fill:#fff"></path><path d="M206.75,267.2a1.31,1.31,0,1,0-1.3-1.3A1.31,1.31,0,0,0,206.75,267.2Z" style="fill:#fff"></path><path d="M214.75,263.89l.1-.15q-.33-1.07-.69-2a1.27,1.27,0,0,0-1.25.31,1.3,1.3,0,1,0,1.84,1.85Z" style="fill:#fff"></path><path d="M210.9,263.06a1.31,1.31,0,1,0-1.31-1.31A1.31,1.31,0,0,0,210.9,263.06Z" style="fill:#fff"></path><path d="M213.74,265.9a1.3,1.3,0,0,0,1.3,1.3,1.21,1.21,0,0,0,.62-.18c-.17-.85-.36-1.66-.57-2.42H215A1.31,1.31,0,0,0,213.74,265.9Z" style="fill:#fff"></path><path d="M196.74,318.25a1.31,1.31,0,1,0,0,1.85A1.31,1.31,0,0,0,196.74,318.25Z" style="fill:#fff"></path><path d="M192.88,321.69a1.31,1.31,0,1,0-1.3-1.3A1.31,1.31,0,0,0,192.88,321.69Z" style="fill:#fff"></path><circle cx="188.74" cy="316.24" r="1.3" transform="translate(-128.6 503.13) rotate(-89.66)" style="fill:#fff"></circle><path d="M196.74,314.24a1.31,1.31,0,1,0-1.85,0A1.33,1.33,0,0,0,196.74,314.24Z" style="fill:#fff"></path><path d="M190.88,320.1a1.31,1.31,0,1,0-1.85,0A1.31,1.31,0,0,0,190.88,320.1Z" style="fill:#fff"></path><path d="M197,314.94a1.31,1.31,0,1,0,1.3,1.3A1.31,1.31,0,0,0,197,314.94Z" style="fill:#fff"></path><circle cx="189.95" cy="313.31" r="1.3" style="fill:#fff"></circle><path d="M192.88,314.07a2.18,2.18,0,1,0,2.18,2.17A2.17,2.17,0,0,0,192.88,314.07Z" style="fill:#fff"></path><path d="M192.88,313.4a1.31,1.31,0,1,0-1.3-1.3A1.31,1.31,0,0,0,192.88,313.4Z" style="fill:#fff"></path><path d="M214.49,294.21a1.26,1.26,0,0,0-1.58.17,1.3,1.3,0,0,0,0,1.84,1.28,1.28,0,0,0,1.27.32C214.29,295.75,214.39,295,214.49,294.21Z" style="fill:#fff"></path><path d="M213.86,298.77c.07-.46.13-.91.2-1.37a1.3,1.3,0,0,0-.32.83A1.42,1.42,0,0,0,213.86,298.77Z" style="fill:#fff"></path><path d="M212.91,302.08a1.32,1.32,0,0,0,.42.29c.13-.83.25-1.66.37-2.49a1.28,1.28,0,0,0-.79.36A1.3,1.3,0,0,0,212.91,302.08Z" style="fill:#fff"></path><path d="M207,300.24a1.3,1.3,0,1,0,1.85,0A1.3,1.3,0,0,0,207,300.24Z" style="fill:#fff"></path><path d="M210.9,300.41a2.18,2.18,0,1,0-2.18-2.18A2.18,2.18,0,0,0,210.9,300.41Z" style="fill:#fff"></path><path d="M210.9,301.07a1.31,1.31,0,1,0,1.3,1.3A1.31,1.31,0,0,0,210.9,301.07Z" style="fill:#fff"></path><path d="M206.75,299.53a1.3,1.3,0,1,0-1.3-1.3A1.31,1.31,0,0,0,206.75,299.53Z" style="fill:#fff"></path><path d="M210.9,295.39a1.31,1.31,0,1,0-1.31-1.3A1.3,1.3,0,0,0,210.9,295.39Z" style="fill:#fff"></path><path d="M207,296.22a1.3,1.3,0,1,0,0-1.84A1.31,1.31,0,0,0,207,296.22Z" style="fill:#fff"></path><path d="M197,347.27a1.31,1.31,0,1,0,0,2.61,1.31,1.31,0,0,0,0-2.61Z" style="fill:#fff"></path><path d="M192.88,354a1.31,1.31,0,1,0,0-2.61,1.31,1.31,0,0,0,0,2.61Z" style="fill:#fff"></path><path d="M196.74,346.57a1.31,1.31,0,1,0-1.85,0A1.31,1.31,0,0,0,196.74,346.57Z" style="fill:#fff"></path><path d="M192.88,345.74a1.31,1.31,0,1,0,0-2.61,1.31,1.31,0,0,0,0,2.61Z" style="fill:#fff"></path><circle cx="189.95" cy="345.65" r="1.3" style="fill:#fff"></circle><circle cx="189.95" cy="351.51" r="1.3" style="fill:#fff"></circle><circle cx="188.74" cy="348.58" r="1.3" transform="translate(-160.94 535.27) rotate(-89.66)" style="fill:#fff"></circle><path d="M192.88,346.4a2.18,2.18,0,1,0,2.18,2.18A2.17,2.17,0,0,0,192.88,346.4Z" style="fill:#fff"></path><path d="M196.74,350.58a1.33,1.33,0,0,0-1.85,0,1.31,1.31,0,1,0,1.85,0Z" style="fill:#fff"></path><path d="M207,328.56a1.33,1.33,0,0,0,1.85,0l0,0c.08-.46.17-.93.25-1.41a1.22,1.22,0,0,0-.27-.41,1.31,1.31,0,1,0-1.85,1.85Z" style="fill:#fff"></path><path d="M207.74,334.75c.15-.8.31-1.64.48-2.51a1.29,1.29,0,0,0-1.18.33,1.27,1.27,0,0,0,.7,2.18Z" style="fill:#fff"></path><path d="M206.75,331.87a1.31,1.31,0,1,0,0-2.61,1.31,1.31,0,0,0,0,2.61Z" style="fill:#fff"></path><path d="M192.88,378.73a2.18,2.18,0,1,0,2.18,2.18A2.18,2.18,0,0,0,192.88,378.73Z" style="fill:#fff"></path><path d="M196.74,378.9a1.3,1.3,0,1,0-1.85,0A1.3,1.3,0,0,0,196.74,378.9Z" style="fill:#fff"></path><path d="M192.88,378.07a1.31,1.31,0,1,0-1.3-1.3A1.31,1.31,0,0,0,192.88,378.07Z" style="fill:#fff"></path><path d="M189,378.9a1.3,1.3,0,1,0,0-1.84A1.31,1.31,0,0,0,189,378.9Z" style="fill:#fff"></path><circle cx="188.74" cy="380.91" r="1.3" transform="translate(-193.27 567.42) rotate(-89.66)" style="fill:#fff"></circle><circle cx="189.95" cy="383.84" r="1.3" style="fill:#fff"></circle><path d="M196.74,382.92a1.3,1.3,0,1,0,0,1.84A1.31,1.31,0,0,0,196.74,382.92Z" style="fill:#fff"></path><path d="M192.88,383.75a1.31,1.31,0,1,0,1.31,1.3A1.3,1.3,0,0,0,192.88,383.75Z" style="fill:#fff"></path><path d="M197,379.6a1.31,1.31,0,1,0,0,2.61,1.31,1.31,0,0,0,0-2.61Z" style="fill:#fff"></path><path d="M210.9,368.35a1.3,1.3,0,0,0,1.2-.8l-.51-1.59a1.28,1.28,0,0,0-.69-.22,1.31,1.31,0,1,0,0,2.61Z" style="fill:#fff"></path><path d="M210.9,365.07a1.72,1.72,0,0,0,.39,0l-1.31-4.1a2.17,2.17,0,0,0,.92,4.14Z" style="fill:#fff"></path><path d="M206.75,364.2a1.31,1.31,0,1,0-1.3-1.3A1.31,1.31,0,0,0,206.75,364.2Z" style="fill:#fff"></path><path d="M207,360.89a1.31,1.31,0,1,0,0-1.85A1.31,1.31,0,0,0,207,360.89Z" style="fill:#fff"></path><path d="M207,364.9a1.31,1.31,0,1,0,1.85,0A1.33,1.33,0,0,0,207,364.9Z" style="fill:#fff"></path><path d="M194.89,415.25a1.31,1.31,0,1,0,1.85,0A1.31,1.31,0,0,0,194.89,415.25Z" style="fill:#fff"></path><path d="M192.88,416.08a1.31,1.31,0,1,0,1.31,1.31A1.31,1.31,0,0,0,192.88,416.08Z" style="fill:#fff"></path><circle cx="189.95" cy="416.17" r="1.3" style="fill:#fff"></circle><path d="M197,411.94a1.31,1.31,0,1,0,1.3,1.3A1.31,1.31,0,0,0,197,411.94Z" style="fill:#fff"></path><path d="M194.89,409.39a1.31,1.31,0,0,0,0,1.85,1.33,1.33,0,0,0,1.85,0,1.31,1.31,0,0,0-1.85-1.85Z" style="fill:#fff"></path><path d="M189,409.39a1.31,1.31,0,0,0,0,1.85,1.33,1.33,0,0,0,1.85,0,1.31,1.31,0,0,0-1.85-1.85Z" style="fill:#fff"></path><circle cx="188.74" cy="413.24" r="1.3" style="fill:#fff"></circle><path d="M192.88,407.79a1.31,1.31,0,1,0,1.31,1.31A1.31,1.31,0,0,0,192.88,407.79Z" style="fill:#fff"></path><path d="M192.88,411.07a2.18,2.18,0,1,0,2.18,2.17A2.17,2.17,0,0,0,192.88,411.07Z" style="fill:#fff"></path><path d="M214.75,393.22a1.3,1.3,0,1,0-1.84,0A1.3,1.3,0,0,0,214.75,393.22Z" style="fill:#fff"></path><path d="M210.9,392.39a1.31,1.31,0,1,0-1.31-1.31A1.3,1.3,0,0,0,210.9,392.39Z" style="fill:#fff"></path><path d="M215,393.92a1.31,1.31,0,1,0,1.31,1.31A1.31,1.31,0,0,0,215,393.92Z" style="fill:#fff"></path><path d="M207,393.22a1.3,1.3,0,1,0,0-1.84A1.31,1.31,0,0,0,207,393.22Z" style="fill:#fff"></path><path d="M210.9,393.05a2.18,2.18,0,1,0,2.17,2.18A2.18,2.18,0,0,0,210.9,393.05Z" style="fill:#fff"></path><path d="M214.75,397.24a1.3,1.3,0,1,0,0,1.84A1.3,1.3,0,0,0,214.75,397.24Z" style="fill:#fff"></path><path d="M208.89,397.24a1.3,1.3,0,1,0,0,1.84A1.31,1.31,0,0,0,208.89,397.24Z" style="fill:#fff"></path><path d="M210.9,398.07a1.31,1.31,0,1,0,1.3,1.3A1.31,1.31,0,0,0,210.9,398.07Z" style="fill:#fff"></path><path d="M206.75,396.53a1.31,1.31,0,1,0-1.3-1.3A1.31,1.31,0,0,0,206.75,396.53Z" style="fill:#fff"></path><path d="M210.9,422.11a1.31,1.31,0,1,0,0,2.61,1.31,1.31,0,0,0,0-2.61Z" style="fill:#fff"></path><path d="M215,426.26a1.3,1.3,0,0,0-.61,2.44h1.22a1.29,1.29,0,0,0-.61-2.44Z" style="fill:#fff"></path><path d="M207,423.71a1.31,1.31,0,0,0,0,1.85,1.33,1.33,0,0,0,1.85,0,1.31,1.31,0,0,0-1.85-1.85Z" style="fill:#fff"></path><path d="M212.91,423.71a1.3,1.3,0,1,0,1.84,0A1.31,1.31,0,0,0,212.91,423.71Z" style="fill:#fff"></path><path d="M210.9,425.39a2.17,2.17,0,0,0-2.18,2.17,2.14,2.14,0,0,0,.33,1.14h3.7a2.22,2.22,0,0,0,.32-1.14A2.17,2.17,0,0,0,210.9,425.39Z" style="fill:#fff"></path><path d="M206.75,426.26a1.3,1.3,0,0,0-.61,2.44h1.22a1.29,1.29,0,0,0-.61-2.44Z" style="fill:#fff"></path><path d="M165.74,255.43a1.31,1.31,0,0,0,0-1.85,1.33,1.33,0,0,0-1.85,0,1.31,1.31,0,0,0,1.85,1.85Z" style="fill:#fff"></path><path d="M166,250.27a1.31,1.31,0,1,0,0,2.61,1.31,1.31,0,0,0,0-2.61Z" style="fill:#fff"></path><path d="M163.68,250.35c0,1-.05,1.86-.11,2.58a2.14,2.14,0,0,0,.11-2.58Z" style="fill:#fff"></path><path d="M163.89,249.57a1.31,1.31,0,1,0,0-1.85,1.27,1.27,0,0,0-.2.31v1.24A1.43,1.43,0,0,0,163.89,249.57Z" style="fill:#fff"></path><path d="M163.18,255.67a4.25,4.25,0,0,1-.24.78,1.31,1.31,0,0,0,.25-.73S163.18,255.69,163.18,255.67Z" style="fill:#fff"></path><path d="M159.88,281.9a1.3,1.3,0,1,0-1.85,0A1.3,1.3,0,0,0,159.88,281.9Z" style="fill:#fff"></path><path d="M165.74,285.92a1.3,1.3,0,1,0,0,1.84A1.31,1.31,0,0,0,165.74,285.92Z" style="fill:#fff"></path><path d="M161.88,286.09a2.18,2.18,0,1,0-2.17-2.18A2.18,2.18,0,0,0,161.88,286.09Z" style="fill:#fff"></path><path d="M165.74,281.9a1.3,1.3,0,1,0-1.85,0A1.3,1.3,0,0,0,165.74,281.9Z" style="fill:#fff"></path><path d="M161.88,281.07a1.31,1.31,0,1,0-1.3-1.3A1.31,1.31,0,0,0,161.88,281.07Z" style="fill:#fff"></path><circle cx="158.95" cy="286.84" r="1.3" style="fill:#fff"></circle><path d="M166,282.61a1.3,1.3,0,1,0,1.3,1.3A1.31,1.31,0,0,0,166,282.61Z" style="fill:#fff"></path><circle cx="157.74" cy="283.91" r="1.3" style="fill:#fff"></circle><path d="M161.88,289.36a1.31,1.31,0,1,0-1.3-1.31A1.31,1.31,0,0,0,161.88,289.36Z" style="fill:#fff"></path><path d="M179.9,263.06a1.31,1.31,0,1,0-1.31-1.31A1.31,1.31,0,0,0,179.9,263.06Z" style="fill:#fff"></path><path d="M183.75,263.89a1.3,1.3,0,1,0-1.84,0A1.31,1.31,0,0,0,183.75,263.89Z" style="fill:#fff"></path><path d="M175.75,267.2a1.31,1.31,0,1,0-1.3-1.3A1.31,1.31,0,0,0,175.75,267.2Z" style="fill:#fff"></path><path d="M177.89,263.89a1.31,1.31,0,1,0-1.85,0A1.31,1.31,0,0,0,177.89,263.89Z" style="fill:#fff"></path><path d="M179.9,271.35a1.31,1.31,0,1,0-1.31-1.31A1.31,1.31,0,0,0,179.9,271.35Z" style="fill:#fff"></path><path d="M179.9,268.07a2.18,2.18,0,1,0-2.18-2.17A2.17,2.17,0,0,0,179.9,268.07Z" style="fill:#fff"></path><path d="M184,264.59a1.31,1.31,0,1,0,1.31,1.31A1.31,1.31,0,0,0,184,264.59Z" style="fill:#fff"></path><path d="M177.89,269.75a1.31,1.31,0,0,0,0-1.85,1.33,1.33,0,0,0-1.85,0,1.31,1.31,0,1,0,1.85,1.85Z" style="fill:#fff"></path><path d="M183.75,267.9a1.3,1.3,0,1,0-1.84,1.85,1.3,1.3,0,0,0,1.84-1.85Z" style="fill:#fff"></path><path d="M165.74,314.24a1.31,1.31,0,1,0-1.85,0A1.33,1.33,0,0,0,165.74,314.24Z" style="fill:#fff"></path><path d="M165.74,318.25a1.31,1.31,0,1,0,0,1.85A1.31,1.31,0,0,0,165.74,318.25Z" style="fill:#fff"></path><path d="M159.88,320.1a1.31,1.31,0,1,0-1.85,0A1.31,1.31,0,0,0,159.88,320.1Z" style="fill:#fff"></path><path d="M166,314.94a1.31,1.31,0,1,0,1.3,1.3A1.31,1.31,0,0,0,166,314.94Z" style="fill:#fff"></path><path d="M161.88,321.69a1.31,1.31,0,1,0-1.3-1.3A1.31,1.31,0,0,0,161.88,321.69Z" style="fill:#fff"></path><circle cx="157.74" cy="316.24" r="1.3" transform="translate(-159.27 472.43) rotate(-89.72)" style="fill:#fff"></circle><path d="M161.88,313.4a1.31,1.31,0,1,0-1.3-1.3A1.31,1.31,0,0,0,161.88,313.4Z" style="fill:#fff"></path><path d="M161.88,314.07a2.18,2.18,0,1,0,2.18,2.17A2.17,2.17,0,0,0,161.88,314.07Z" style="fill:#fff"></path><circle cx="158.95" cy="313.31" r="1.3" style="fill:#fff"></circle><path d="M179.9,296.05a2.18,2.18,0,1,0,2.17,2.18A2.18,2.18,0,0,0,179.9,296.05Z" style="fill:#fff"></path><path d="M179.9,295.39a1.31,1.31,0,1,0-1.31-1.3A1.3,1.3,0,0,0,179.9,295.39Z" style="fill:#fff"></path><path d="M176,296.22a1.3,1.3,0,1,0,0-1.84A1.31,1.31,0,0,0,176,296.22Z" style="fill:#fff"></path><path d="M175.75,299.53a1.3,1.3,0,1,0-1.3-1.3A1.31,1.31,0,0,0,175.75,299.53Z" style="fill:#fff"></path><path d="M184,296.93a1.3,1.3,0,1,0,1.31,1.3A1.3,1.3,0,0,0,184,296.93Z" style="fill:#fff"></path><path d="M183.75,296.22a1.3,1.3,0,1,0-1.84,0A1.3,1.3,0,0,0,183.75,296.22Z" style="fill:#fff"></path><path d="M177.89,302.08a1.3,1.3,0,1,0-1.85,0A1.3,1.3,0,0,0,177.89,302.08Z" style="fill:#fff"></path><path d="M179.9,303.68a1.31,1.31,0,1,0-1.31-1.31A1.3,1.3,0,0,0,179.9,303.68Z" style="fill:#fff"></path><path d="M183.75,300.24a1.3,1.3,0,1,0,0,1.84A1.3,1.3,0,0,0,183.75,300.24Z" style="fill:#fff"></path><circle cx="158.95" cy="351.51" r="1.3" style="fill:#fff"></circle><path d="M161.88,346.4a2.18,2.18,0,1,0,2.18,2.18A2.17,2.17,0,0,0,161.88,346.4Z" style="fill:#fff"></path><path d="M161.88,354a1.31,1.31,0,1,0,0-2.61,1.31,1.31,0,0,0,0,2.61Z" style="fill:#fff"></path><path d="M165.74,350.58a1.33,1.33,0,0,0-1.85,0,1.31,1.31,0,1,0,1.85,0Z" style="fill:#fff"></path><path d="M166,347.27a1.31,1.31,0,1,0,0,2.61,1.31,1.31,0,0,0,0-2.61Z" style="fill:#fff"></path><path d="M161.88,345.74a1.31,1.31,0,1,0,0-2.61,1.31,1.31,0,0,0,0,2.61Z" style="fill:#fff"></path><path d="M165.74,346.57a1.31,1.31,0,1,0-1.85,0A1.31,1.31,0,0,0,165.74,346.57Z" style="fill:#fff"></path><circle cx="157.74" cy="348.58" r="1.3" transform="translate(-191.6 504.61) rotate(-89.72)" style="fill:#fff"></circle><circle cx="158.95" cy="345.65" r="1.3" style="fill:#fff"></circle><path d="M184,329.26a1.31,1.31,0,0,0,0,2.61,1.31,1.31,0,1,0,0-2.61Z" style="fill:#fff"></path><path d="M183.75,328.56a1.3,1.3,0,1,0-1.84,0A1.31,1.31,0,0,0,183.75,328.56Z" style="fill:#fff"></path><path d="M176,328.56a1.33,1.33,0,0,0,1.85,0,1.31,1.31,0,1,0-1.85,0Z" style="fill:#fff"></path><path d="M179.9,327.72a1.31,1.31,0,0,0,0-2.61,1.31,1.31,0,1,0,0,2.61Z" style="fill:#fff"></path><path d="M179.9,328.39a2.18,2.18,0,1,0,2.17,2.17A2.17,2.17,0,0,0,179.9,328.39Z" style="fill:#fff"></path><path d="M179.9,336a1.31,1.31,0,0,0,0-2.61,1.31,1.31,0,1,0,0,2.61Z" style="fill:#fff"></path><path d="M177.89,334.42a1.31,1.31,0,1,0-1.85,0A1.31,1.31,0,0,0,177.89,334.42Z" style="fill:#fff"></path><path d="M183.75,332.57a1.3,1.3,0,1,0,0,1.85A1.3,1.3,0,0,0,183.75,332.57Z" style="fill:#fff"></path><path d="M175.75,331.87a1.31,1.31,0,1,0,0-2.61,1.31,1.31,0,0,0,0,2.61Z" style="fill:#fff"></path><path d="M161.88,378.73a2.18,2.18,0,1,0,2.18,2.18A2.18,2.18,0,0,0,161.88,378.73Z" style="fill:#fff"></path><path d="M165.74,382.92a1.3,1.3,0,1,0,0,1.84A1.31,1.31,0,0,0,165.74,382.92Z" style="fill:#fff"></path><path d="M161.88,383.75a1.31,1.31,0,1,0,1.31,1.3A1.3,1.3,0,0,0,161.88,383.75Z" style="fill:#fff"></path><path d="M166,379.6a1.31,1.31,0,1,0,0,2.61,1.31,1.31,0,0,0,0-2.61Z" style="fill:#fff"></path><path d="M161.88,378.07a1.31,1.31,0,1,0-1.3-1.3A1.31,1.31,0,0,0,161.88,378.07Z" style="fill:#fff"></path><path d="M158,378.9a1.3,1.3,0,1,0,0-1.84A1.31,1.31,0,0,0,158,378.9Z" style="fill:#fff"></path><circle cx="158.95" cy="383.84" r="1.3" style="fill:#fff"></circle><path d="M165.74,378.9a1.3,1.3,0,1,0-1.85,0A1.3,1.3,0,0,0,165.74,378.9Z" style="fill:#fff"></path><circle cx="157.74" cy="380.91" r="1.3" transform="translate(-223.94 536.78) rotate(-89.72)" style="fill:#fff"></circle><path d="M183.75,364.9a1.3,1.3,0,1,0-1.84,1.85,1.3,1.3,0,0,0,1.84-1.85Z" style="fill:#fff"></path><path d="M179.9,360.06a1.31,1.31,0,1,0-1.31-1.31A1.31,1.31,0,0,0,179.9,360.06Z" style="fill:#fff"></path><path d="M183.75,360.89a1.3,1.3,0,1,0-1.84,0A1.31,1.31,0,0,0,183.75,360.89Z" style="fill:#fff"></path><path d="M184,361.59a1.31,1.31,0,1,0,1.31,1.31A1.31,1.31,0,0,0,184,361.59Z" style="fill:#fff"></path><path d="M179.9,360.72a2.18,2.18,0,1,0,2.17,2.18A2.17,2.17,0,0,0,179.9,360.72Z" style="fill:#fff"></path><path d="M175.75,364.2a1.31,1.31,0,1,0-1.3-1.3A1.31,1.31,0,0,0,175.75,364.2Z" style="fill:#fff"></path><path d="M179.9,368.35a1.31,1.31,0,1,0-1.31-1.31A1.31,1.31,0,0,0,179.9,368.35Z" style="fill:#fff"></path><path d="M176,360.89a1.31,1.31,0,1,0,0-1.85A1.31,1.31,0,0,0,176,360.89Z" style="fill:#fff"></path><path d="M177.89,366.75a1.31,1.31,0,0,0,0-1.85,1.33,1.33,0,0,0-1.85,0,1.31,1.31,0,1,0,1.85,1.85Z" style="fill:#fff"></path><path d="M161.88,411.07a2.18,2.18,0,1,0,2.18,2.17A2.17,2.17,0,0,0,161.88,411.07Z" style="fill:#fff"></path><path d="M166,411.94a1.31,1.31,0,1,0,1.3,1.3A1.31,1.31,0,0,0,166,411.94Z" style="fill:#fff"></path><path d="M163.89,415.25a1.31,1.31,0,1,0,1.85,0A1.31,1.31,0,0,0,163.89,415.25Z" style="fill:#fff"></path><path d="M158,409.39a1.31,1.31,0,0,0,0,1.85,1.33,1.33,0,0,0,1.85,0,1.31,1.31,0,0,0-1.85-1.85Z" style="fill:#fff"></path><path d="M163.89,409.39a1.31,1.31,0,0,0,0,1.85,1.33,1.33,0,0,0,1.85,0,1.31,1.31,0,0,0-1.85-1.85Z" style="fill:#fff"></path><circle cx="158.95" cy="416.17" r="1.3" style="fill:#fff"></circle><path d="M161.88,407.79a1.31,1.31,0,1,0,1.31,1.31A1.31,1.31,0,0,0,161.88,407.79Z" style="fill:#fff"></path><circle cx="157.74" cy="413.24" r="1.3" style="fill:#fff"></circle><path d="M161.88,416.08a1.31,1.31,0,1,0,1.31,1.31A1.31,1.31,0,0,0,161.88,416.08Z" style="fill:#fff"></path><path d="M179.9,393.05a2.18,2.18,0,1,0,2.17,2.18A2.18,2.18,0,0,0,179.9,393.05Z" style="fill:#fff"></path><path d="M179.9,392.39a1.31,1.31,0,1,0-1.31-1.31A1.3,1.3,0,0,0,179.9,392.39Z" style="fill:#fff"></path><path d="M176,393.22a1.3,1.3,0,1,0,0-1.84A1.31,1.31,0,0,0,176,393.22Z" style="fill:#fff"></path><path d="M184,393.92a1.31,1.31,0,1,0,1.31,1.31A1.31,1.31,0,0,0,184,393.92Z" style="fill:#fff"></path><path d="M183.75,393.22a1.3,1.3,0,1,0-1.84,0A1.3,1.3,0,0,0,183.75,393.22Z" style="fill:#fff"></path><path d="M177.89,397.24a1.3,1.3,0,1,0,0,1.84A1.31,1.31,0,0,0,177.89,397.24Z" style="fill:#fff"></path><path d="M179.9,398.07a1.31,1.31,0,1,0,1.3,1.3A1.31,1.31,0,0,0,179.9,398.07Z" style="fill:#fff"></path><path d="M175.75,396.53a1.31,1.31,0,1,0-1.3-1.3A1.31,1.31,0,0,0,175.75,396.53Z" style="fill:#fff"></path><path d="M183.75,397.24a1.3,1.3,0,1,0,0,1.84A1.3,1.3,0,0,0,183.75,397.24Z" style="fill:#fff"></path><path d="M181.91,423.71a1.3,1.3,0,1,0,1.84,0A1.31,1.31,0,0,0,181.91,423.71Z" style="fill:#fff"></path><path d="M175.75,426.26a1.3,1.3,0,0,0-.61,2.44h1.22a1.29,1.29,0,0,0-.61-2.44Z" style="fill:#fff"></path><path d="M179.9,425.39a2.17,2.17,0,0,0-2.18,2.17,2.14,2.14,0,0,0,.33,1.14h3.7a2.22,2.22,0,0,0,.32-1.14A2.17,2.17,0,0,0,179.9,425.39Z" style="fill:#fff"></path><path d="M184,426.26a1.3,1.3,0,0,0-.61,2.44h1.22a1.29,1.29,0,0,0-.61-2.44Z" style="fill:#fff"></path><path d="M179.9,422.11a1.31,1.31,0,1,0,0,2.61,1.31,1.31,0,0,0,0-2.61Z" style="fill:#fff"></path><path d="M176,423.71a1.31,1.31,0,0,0,0,1.85,1.33,1.33,0,0,0,1.85,0,1.31,1.31,0,0,0-1.85-1.85Z" style="fill:#fff"></path><path d="M135,255c-.3.23-.59.47-.87.73a1.3,1.3,0,0,0,.6-.32A1.22,1.22,0,0,0,135,255Z" style="fill:#fff"></path><path d="M135,282.61a1.3,1.3,0,1,0,1.3,1.3A1.31,1.31,0,0,0,135,282.61Z" style="fill:#fff"></path><path d="M134.74,285.92a1.3,1.3,0,1,0,0,1.84A1.31,1.31,0,0,0,134.74,285.92Z" style="fill:#fff"></path><path d="M134.74,281.9a1.3,1.3,0,1,0-1.85,0A1.3,1.3,0,0,0,134.74,281.9Z" style="fill:#fff"></path><path d="M130.88,281.07a1.31,1.31,0,1,0-1.3-1.3A1.31,1.31,0,0,0,130.88,281.07Z" style="fill:#fff"></path><path d="M130.44,286.84c.13.83.28,1.67.42,2.52h0a1.31,1.31,0,1,0,0-2.61A1.33,1.33,0,0,0,130.44,286.84Z" style="fill:#fff"></path><path d="M129.7,282.08c.18,1.27.39,2.58.6,3.92a2.26,2.26,0,0,0,.58.09,2.18,2.18,0,1,0-1.18-4Z" style="fill:#fff"></path><path d="M146.89,269.75a1.31,1.31,0,0,0,0-1.85,1.33,1.33,0,0,0-1.85,0,1.31,1.31,0,1,0,1.85,1.85Z" style="fill:#fff"></path><path d="M148.9,271.35a1.31,1.31,0,1,0-1.31-1.31A1.31,1.31,0,0,0,148.9,271.35Z" style="fill:#fff"></path><path d="M152.75,267.9a1.3,1.3,0,1,0-1.84,1.85,1.3,1.3,0,0,0,1.84-1.85Z" style="fill:#fff"></path><path d="M148.9,268.07a2.18,2.18,0,1,0-2.18-2.17A2.17,2.17,0,0,0,148.9,268.07Z" style="fill:#fff"></path><path d="M144.75,267.2a1.31,1.31,0,1,0-1.3-1.3A1.31,1.31,0,0,0,144.75,267.2Z" style="fill:#fff"></path><path d="M153,264.59a1.31,1.31,0,1,0,1.31,1.31A1.31,1.31,0,0,0,153,264.59Z" style="fill:#fff"></path><path d="M152.75,263.89a1.3,1.3,0,1,0-1.84,0A1.31,1.31,0,0,0,152.75,263.89Z" style="fill:#fff"></path><path d="M148.9,263.06a1.31,1.31,0,1,0-1.31-1.31A1.31,1.31,0,0,0,148.9,263.06Z" style="fill:#fff"></path><path d="M146.89,263.89a1.31,1.31,0,1,0-1.85,0A1.31,1.31,0,0,0,146.89,263.89Z" style="fill:#fff"></path><path d="M144.75,299.53a1.3,1.3,0,1,0-1.3-1.3A1.31,1.31,0,0,0,144.75,299.53Z" style="fill:#fff"></path><path d="M145,296.22a1.3,1.3,0,1,0,0-1.84A1.31,1.31,0,0,0,145,296.22Z" style="fill:#fff"></path><path d="M148.9,295.39a1.31,1.31,0,1,0-1.31-1.3A1.3,1.3,0,0,0,148.9,295.39Z" style="fill:#fff"></path><path d="M152.75,296.22a1.3,1.3,0,1,0-1.84,0A1.3,1.3,0,0,0,152.75,296.22Z" style="fill:#fff"></path><path d="M148.9,303.68a1.31,1.31,0,1,0-1.31-1.31A1.3,1.3,0,0,0,148.9,303.68Z" style="fill:#fff"></path><path d="M152.75,300.24a1.3,1.3,0,1,0,0,1.84A1.3,1.3,0,0,0,152.75,300.24Z" style="fill:#fff"></path><path d="M153,296.93a1.3,1.3,0,1,0,1.31,1.3A1.3,1.3,0,0,0,153,296.93Z" style="fill:#fff"></path><path d="M146.89,302.08a1.3,1.3,0,1,0-1.85,0A1.3,1.3,0,0,0,146.89,302.08Z" style="fill:#fff"></path><path d="M148.9,296.05a2.18,2.18,0,1,0,2.17,2.18A2.18,2.18,0,0,0,148.9,296.05Z" style="fill:#fff"></path><path d="M152.75,332.57a1.3,1.3,0,1,0,0,1.85A1.3,1.3,0,0,0,152.75,332.57Z" style="fill:#fff"></path><path d="M148.9,328.39a2.18,2.18,0,1,0,2.17,2.17A2.17,2.17,0,0,0,148.9,328.39Z" style="fill:#fff"></path><path d="M146.89,334.42a1.31,1.31,0,1,0-1.85,0A1.31,1.31,0,0,0,146.89,334.42Z" style="fill:#fff"></path><path d="M148.9,336a1.31,1.31,0,0,0,0-2.61,1.31,1.31,0,1,0,0,2.61Z" style="fill:#fff"></path><path d="M153,329.26a1.31,1.31,0,0,0,0,2.61,1.31,1.31,0,1,0,0-2.61Z" style="fill:#fff"></path><path d="M148.9,327.72a1.31,1.31,0,0,0,0-2.61,1.31,1.31,0,1,0,0,2.61Z" style="fill:#fff"></path><path d="M152.75,328.56a1.3,1.3,0,1,0-1.84,0A1.31,1.31,0,0,0,152.75,328.56Z" style="fill:#fff"></path><path d="M145,328.56a1.33,1.33,0,0,0,1.85,0,1.31,1.31,0,1,0-1.85,0Z" style="fill:#fff"></path><path d="M144.75,331.87a1.31,1.31,0,1,0,0-2.61,1.31,1.31,0,0,0,0,2.61Z" style="fill:#fff"></path><path d="M135.08,383.62c-.13.39-.25.77-.37,1.16l0,0A1.28,1.28,0,0,0,135.08,383.62Z" style="fill:#fff"></path><path d="M135.56,382.09a1.28,1.28,0,0,0,.77-1.18,1.25,1.25,0,0,0-.18-.63C136,380.88,135.76,381.49,135.56,382.09Z" style="fill:#fff"></path><path d="M148.9,368.35a1.31,1.31,0,1,0-1.31-1.31A1.31,1.31,0,0,0,148.9,368.35Z" style="fill:#fff"></path><path d="M148.9,360.72a2.18,2.18,0,1,0,2.17,2.18A2.17,2.17,0,0,0,148.9,360.72Z" style="fill:#fff"></path><path d="M152.75,364.9a1.3,1.3,0,1,0-1.84,1.85,1.3,1.3,0,0,0,1.84-1.85Z" style="fill:#fff"></path><path d="M153,361.59a1.31,1.31,0,1,0,1.31,1.31A1.31,1.31,0,0,0,153,361.59Z" style="fill:#fff"></path><path d="M146.89,366.75a1.31,1.31,0,0,0,0-1.85,1.33,1.33,0,0,0-1.85,0,1.31,1.31,0,1,0,1.85,1.85Z" style="fill:#fff"></path><path d="M152.75,360.89a1.3,1.3,0,1,0-1.84,0A1.31,1.31,0,0,0,152.75,360.89Z" style="fill:#fff"></path><path d="M145,360.89a1.31,1.31,0,1,0,0-1.85A1.31,1.31,0,0,0,145,360.89Z" style="fill:#fff"></path><path d="M148.9,360.06a1.31,1.31,0,1,0-1.31-1.31A1.31,1.31,0,0,0,148.9,360.06Z" style="fill:#fff"></path><path d="M144.75,364.2a1.31,1.31,0,1,0-1.3-1.3A1.31,1.31,0,0,0,144.75,364.2Z" style="fill:#fff"></path><path d="M130.88,416.08a1.31,1.31,0,1,0,1.31,1.31A1.31,1.31,0,0,0,130.88,416.08Z" style="fill:#fff"></path><path d="M130.88,410.4a1.31,1.31,0,1,0-1.3-1.3A1.31,1.31,0,0,0,130.88,410.4Z" style="fill:#fff"></path><circle cx="127.95" cy="416.17" r="1.3" style="fill:#fff"></circle><path d="M128.88,411.24A1.31,1.31,0,0,0,128,409q-.31,1.26-.6,2.46A1.3,1.3,0,0,0,128.88,411.24Z" style="fill:#fff"></path><path d="M132.89,409.39a1.31,1.31,0,0,0,0,1.85,1.33,1.33,0,0,0,1.85,0,1.31,1.31,0,0,0-1.85-1.85Z" style="fill:#fff"></path><path d="M128,413.24a1.3,1.3,0,0,0-.79-1.2c-.2.86-.4,1.69-.59,2.49l.08,0A1.31,1.31,0,0,0,128,413.24Z" style="fill:#fff"></path><path d="M135,411.94a1.31,1.31,0,1,0,1.3,1.3A1.31,1.31,0,0,0,135,411.94Z" style="fill:#fff"></path><path d="M132.89,415.25a1.31,1.31,0,1,0,1.85,0A1.31,1.31,0,0,0,132.89,415.25Z" style="fill:#fff"></path><path d="M130.88,411.07a2.18,2.18,0,1,0,2.18,2.17A2.17,2.17,0,0,0,130.88,411.07Z" style="fill:#fff"></path><path d="M148.9,398.07a1.31,1.31,0,1,0,1.3,1.3A1.31,1.31,0,0,0,148.9,398.07Z" style="fill:#fff"></path><path d="M152.75,397.24a1.3,1.3,0,1,0,0,1.84A1.3,1.3,0,0,0,152.75,397.24Z" style="fill:#fff"></path><path d="M153,393.92a1.31,1.31,0,1,0,1.31,1.31A1.31,1.31,0,0,0,153,393.92Z" style="fill:#fff"></path><path d="M146.89,397.24a1.3,1.3,0,1,0,0,1.84A1.31,1.31,0,0,0,146.89,397.24Z" style="fill:#fff"></path><path d="M148.9,393.05a2.18,2.18,0,1,0,2.17,2.18A2.18,2.18,0,0,0,148.9,393.05Z" style="fill:#fff"></path><path d="M144.75,396.53a1.31,1.31,0,1,0-1.3-1.3A1.31,1.31,0,0,0,144.75,396.53Z" style="fill:#fff"></path><path d="M145,393.22a1.3,1.3,0,1,0,0-1.84A1.31,1.31,0,0,0,145,393.22Z" style="fill:#fff"></path><path d="M152.75,393.22a1.3,1.3,0,1,0-1.84,0A1.3,1.3,0,0,0,152.75,393.22Z" style="fill:#fff"></path><path d="M148.9,392.39a1.31,1.31,0,1,0-1.31-1.31A1.3,1.3,0,0,0,148.9,392.39Z" style="fill:#fff"></path><path d="M145,423.71a1.31,1.31,0,0,0,0,1.85,1.33,1.33,0,0,0,1.85,0,1.31,1.31,0,0,0-1.85-1.85Z" style="fill:#fff"></path><path d="M150.91,423.71a1.3,1.3,0,1,0,1.84,0A1.31,1.31,0,0,0,150.91,423.71Z" style="fill:#fff"></path><path d="M144.75,426.26a1.3,1.3,0,0,0-.61,2.44h1.22a1.29,1.29,0,0,0-.61-2.44Z" style="fill:#fff"></path><path d="M148.9,425.39a2.17,2.17,0,0,0-2.18,2.17,2.14,2.14,0,0,0,.33,1.14h3.7a2.22,2.22,0,0,0,.32-1.14A2.17,2.17,0,0,0,148.9,425.39Z" style="fill:#fff"></path><path d="M148.9,422.11a1.31,1.31,0,1,0,0,2.61,1.31,1.31,0,0,0,0-2.61Z" style="fill:#fff"></path><path d="M153,426.26a1.3,1.3,0,0,0-.61,2.44h1.22a1.29,1.29,0,0,0-.61-2.44Z" style="fill:#fff"></path><path d="M123.61,428.7H124v-2C123.74,428,123.61,428.7,123.61,428.7Z" style="fill:none"></path></g><path d="M163.24,235.29s.86,14.86.21,18.74,0,4.52-11.41.64-18.31-2.58-22.83,9.05,15.29,85.72,15.93,87.87-7.1,21.32-12.7,40.71-8.83,36.4-8.83,36.4H227.42s-3.66-27.14-9.48-43.73-12.49-38.55-12.49-38.55,12.92-62.89,10.55-77.53-9-16.59-16.8-16.59a50.23,50.23,0,0,0-15.29,2.8l.65-15.29S165.39,240.24,163.24,235.29Z" style="fill:none;stroke:#263238;stroke-linecap:round;stroke-linejoin:round"></path><path d="M194.47,253s12.92-8.4,20.89-2.59,4.74,24.34,4.74,35.76,2.15,35.75.43,44.36-5,12.71-9.48,13.36-9.91-4.09-9.91-15.29-2.15-40.28-2.37-46.1-1.5-14.43-1.5-14.43" style="fill:#DDA217"></path><g style="clip-path:url(#freepik--clip-path-2--inject-114)"><path d="M220,285.92a1.3,1.3,0,0,0,0,1.84s.06,0,.08.06c0-.59,0-1.17,0-1.7v-.25Z" style="fill:#fff"></path><path d="M220.2,282c0-.69.06-1.41.1-2.13a1.16,1.16,0,0,0-.27.18,1.3,1.3,0,0,0,0,1.84A1,1,0,0,0,220.2,282Z" style="fill:#fff"></path><path d="M219.74,285.21a1,1,0,0,0,.36-.07c0-.79,0-1.61.07-2.45a1.26,1.26,0,0,0-.43-.08,1.3,1.3,0,1,0,0,2.6Z" style="fill:#fff"></path><path d="M220,314.24a1.27,1.27,0,0,0,1.09.34c0-.84,0-1.69-.07-2.55a1.27,1.27,0,0,0-1,.36A1.31,1.31,0,0,0,220,314.24Z" style="fill:#fff"></path><path d="M221.18,317.91A1.29,1.29,0,0,0,220,320.1a1.29,1.29,0,0,0,1.16.33C221.2,319.61,221.19,318.77,221.18,317.91Z" style="fill:#fff"></path><circle cx="219.74" cy="316.24" r="1.3" style="fill:#fff"></circle><path d="M194.89,253.58a1.24,1.24,0,0,0-.24.37l.28,1.51a1.31,1.31,0,0,0,1.81-1.88A1.33,1.33,0,0,0,194.89,253.58Z" style="fill:#fff"></path><path d="M195.86,252.13a1.29,1.29,0,1,0,2.3-1.17C197.25,251.39,196.46,251.8,195.86,252.13Z" style="fill:#fff"></path><path d="M194.47,253V253a1.24,1.24,0,0,0,.18-.22Z" style="fill:#fff"></path><path d="M210.9,268.07a2.18,2.18,0,1,0-2.18-2.17A2.17,2.17,0,0,0,210.9,268.07Z" style="fill:#fff"></path><path d="M208.89,269.75a1.31,1.31,0,0,0,0-1.85,1.33,1.33,0,0,0-1.85,0,1.31,1.31,0,1,0,1.85,1.85Z" style="fill:#fff"></path><path d="M214.75,267.9a1.3,1.3,0,1,0-1.84,1.85,1.3,1.3,0,0,0,1.84-1.85Z" style="fill:#fff"></path><path d="M215,264.59a1.31,1.31,0,1,0,1.31,1.31A1.31,1.31,0,0,0,215,264.59Z" style="fill:#fff"></path><path d="M210.9,263.06a1.31,1.31,0,1,0-1.31-1.31A1.31,1.31,0,0,0,210.9,263.06Z" style="fill:#fff"></path><path d="M214.75,263.89a1.3,1.3,0,1,0-1.84,0A1.31,1.31,0,0,0,214.75,263.89Z" style="fill:#fff"></path><path d="M208.89,263.89a1.31,1.31,0,1,0-1.85,0A1.31,1.31,0,0,0,208.89,263.89Z" style="fill:#fff"></path><path d="M206.75,267.2a1.31,1.31,0,1,0-1.3-1.3A1.31,1.31,0,0,0,206.75,267.2Z" style="fill:#fff"></path><path d="M210.9,271.35a1.31,1.31,0,1,0-1.31-1.31A1.31,1.31,0,0,0,210.9,271.35Z" style="fill:#fff"></path><path d="M214.75,300.24a1.3,1.3,0,1,0,0,1.84A1.3,1.3,0,0,0,214.75,300.24Z" style="fill:#fff"></path><path d="M214.75,296.22a1.3,1.3,0,1,0-1.84,0A1.3,1.3,0,0,0,214.75,296.22Z" style="fill:#fff"></path><path d="M210.9,296.05a2.18,2.18,0,1,0,2.17,2.18A2.18,2.18,0,0,0,210.9,296.05Z" style="fill:#fff"></path><path d="M215,296.93a1.3,1.3,0,1,0,1.31,1.3A1.3,1.3,0,0,0,215,296.93Z" style="fill:#fff"></path><path d="M210.9,301.07a1.31,1.31,0,1,0,1.3,1.3A1.31,1.31,0,0,0,210.9,301.07Z" style="fill:#fff"></path><path d="M210.9,295.39a1.31,1.31,0,1,0-1.31-1.3A1.3,1.3,0,0,0,210.9,295.39Z" style="fill:#fff"></path><path d="M208.89,300.24a1.3,1.3,0,1,0,0,1.84A1.31,1.31,0,0,0,208.89,300.24Z" style="fill:#fff"></path><path d="M206.75,299.53a1.3,1.3,0,1,0-1.3-1.3A1.31,1.31,0,0,0,206.75,299.53Z" style="fill:#fff"></path><path d="M207,296.22a1.3,1.3,0,1,0,0-1.84A1.31,1.31,0,0,0,207,296.22Z" style="fill:#fff"></path><path d="M212.91,332.57a1.3,1.3,0,1,0,1.84,0A1.31,1.31,0,0,0,212.91,332.57Z" style="fill:#fff"></path><path d="M212.91,326.71a1.3,1.3,0,1,0,1.84,0A1.31,1.31,0,0,0,212.91,326.71Z" style="fill:#fff"></path><path d="M210.9,328.39a2.18,2.18,0,1,0,2.17,2.17A2.17,2.17,0,0,0,210.9,328.39Z" style="fill:#fff"></path><path d="M210.9,333.4a1.31,1.31,0,1,0,0,2.61,1.31,1.31,0,0,0,0-2.61Z" style="fill:#fff"></path><path d="M215,329.26a1.31,1.31,0,0,0,0,2.61,1.31,1.31,0,1,0,0-2.61Z" style="fill:#fff"></path><path d="M210.9,325.11a1.31,1.31,0,1,0,0,2.61,1.31,1.31,0,0,0,0-2.61Z" style="fill:#fff"></path><path d="M207,326.71a1.31,1.31,0,0,0,0,1.85,1.33,1.33,0,0,0,1.85,0,1.31,1.31,0,0,0-1.85-1.85Z" style="fill:#fff"></path><path d="M208.06,330.56a1.31,1.31,0,1,0-1.31,1.31A1.31,1.31,0,0,0,208.06,330.56Z" style="fill:#fff"></path><path d="M207,332.57a1.31,1.31,0,1,0,1.85,0A1.31,1.31,0,0,0,207,332.57Z" style="fill:#fff"></path></g><path d="M194.47,253s12.92-8.4,20.89-2.59,4.74,24.34,4.74,35.76,2.15,35.75.43,44.36-5,12.71-9.48,13.36-9.91-4.09-9.91-15.29-2.15-40.28-2.37-46.1-1.5-14.43-1.5-14.43" style="fill:none;stroke:#263238;stroke-linecap:round;stroke-linejoin:round"></path><path d="M198.91,285.23c.53,9.33,2.23,33.37,2.23,43.32,0,11.2,5.39,15.93,9.91,15.29s7.75-4.74,9.48-13.36-.43-33-.43-44.36c0-.95,0-1.95.06-3C209.82,278.3,202.69,282,198.91,285.23Z" style="fill:#fff;stroke:#263238;stroke-linecap:round;stroke-linejoin:round"></path><path d="M149.24,217.63s-2.37-5.39-5.82-3.45-3,6.25,0,11.42,9.48,6.67,11,5.81S149.24,217.63,149.24,217.63Z" style="fill:#fff;stroke:#263238;stroke-linecap:round;stroke-linejoin:round"></path><path d="M199.09,217.79s1.81-5.59,5.44-4,3.62,5.92,1.14,11.36-8.77,7.59-10.35,6.89S199.09,217.79,199.09,217.79Z" style="fill:#fff;stroke:#263238;stroke-linecap:round;stroke-linejoin:round"></path><path d="M147.94,212.89s3.24,13.57,8.83,21.75S177,250.15,182.84,249.5s13.13-12.92,16.58-25,2.15-22.4,2.15-26.49-3.87-16.8-20-23.05-26.7-1.07-32.09,8S145.14,207.29,147.94,212.89Z" style="fill:#fff;stroke:#263238;stroke-linecap:round;stroke-linejoin:round"></path><path d="M183.27,211.81a12.08,12.08,0,0,0-1.51,7.54c.64,4.09,2.58,6.46,1.08,7.11a5,5,0,0,1-3.45-.22" style="fill:none;stroke:#263238;stroke-linecap:round;stroke-linejoin:round"></path><path d="M184.56,231.2s-3.23,3.66-9.05.43" style="fill:none;stroke:#263238;stroke-linecap:round;stroke-linejoin:round"></path><path d="M162.16,215.69s3.66-5.39,8.83-1.94" style="fill:none;stroke:#263238;stroke-linecap:round;stroke-linejoin:round;stroke-width:2px"></path><path d="M185.64,213.1s4.73-3.87,8.18,0" style="fill:none;stroke:#263238;stroke-linecap:round;stroke-linejoin:round;stroke-width:2px"></path><path d="M170.34,201.47s-6.24-3.23-10.77,4.31" style="fill:none;stroke:#263238;stroke-linecap:round;stroke-linejoin:round"></path><path d="M183.48,200.4s6.89-3.88,11.63,4.73" style="fill:none;stroke:#263238;stroke-linecap:round;stroke-linejoin:round"></path><path d="M222.9,185.75c-.22-6.24-9.91-2.58-13.79-5.81s-.64-9.7-15.29-16.59-29.29-5.6-42.21,1.51-19.17,15.94-18.53,26.49,9,14.65,9.91,17.23a61.76,61.76,0,0,0,3.66,7.54s2.59,1.51,3.23-.86-5.6-6.68.22-11.42,10.34-4.74,9.26-9.9-2.37-11.2,1.72-9.05,7.11,8.61,13.57,11.2,4.09-4.52,4.09-4.52,9.66,12.19,19.75,14.49c1.15,3,.47,8.34,1.68,9.55a1,1,0,0,0,.55.32,65.57,65.57,0,0,0,1.11-9.49c10.53.21,16.09-4.15,15-6s-3.87-1.73-3.87-1.73S223.11,192,222.9,185.75Z" style="fill:#263238;stroke:#263238;stroke-linecap:round;stroke-linejoin:round"></path><path d="M206.08,198.32a33.09,33.09,0,0,0,4.44-.11" style="fill:none;stroke:#fff;stroke-linecap:round;stroke-linejoin:round"></path><path d="M171.32,179s12.2,14.83,28.81,18.56" style="fill:none;stroke:#fff;stroke-linecap:round;stroke-linejoin:round"></path><path d="M202.61,179.62c1.23-.16,2.49-.38,3.79-.67" style="fill:none;stroke:#fff;stroke-linecap:round;stroke-linejoin:round"></path><path d="M175.79,173.45s8,6.38,21,6.53" style="fill:none;stroke:#fff;stroke-linecap:round;stroke-linejoin:round"></path><path d="M147.22,200.71a19.62,19.62,0,0,1-2.37,1.28" style="fill:none;stroke:#fff;stroke-linecap:round;stroke-linejoin:round"></path><path d="M154.82,183.77s1.22,7.51-3.68,13.49" style="fill:none;stroke:#fff;stroke-linecap:round;stroke-linejoin:round"></path><path d="M190.92,239.05s3.35,4.37,5.7,5.82,5.79,1.25,6.28,5.32-2.59,12.68-3.31,19.27,2.1,14.59,5.21,24.19S216.49,315.8,219.34,325s-1.07,21.6-10.69,21S192,320.48,190.37,306.79s-2.69-30-5.24-34.93-8.95-13-7.78-19.45,4.68-7.94,6.16-10.07S186.77,235.22,190.92,239.05Z" style="fill:#fff;stroke:#263238;stroke-linecap:round;stroke-linejoin:round"></path><path d="M151.18,256.61a16.56,16.56,0,0,0-12.5-4.52c-7.53.64-14,6.46-15.07,17s21.32,68.49,25.2,73.23,7.32,6.68,13.13,5.17,6-26.92,1.94-38.55-12.27-37.26-12.27-37.26" style="fill:#DDA217"></path><g style="clip-path:url(#freepik--clip-path-3--inject-114)"><path d="M155,291h2.86c-1-3.07-2-6.07-2.86-8.77Z" style="fill:none"></path><path d="M163.89,314.24a1.29,1.29,0,0,0,1.44.26c-.16-.86-.35-1.69-.55-2.49a1.31,1.31,0,0,0-.89,2.23Z" style="fill:#fff"></path><path d="M161.88,319.08a1.31,1.31,0,1,0,1.31,1.31A1.31,1.31,0,0,0,161.88,319.08Z" style="fill:#fff"></path><path d="M163.89,318.25a1.31,1.31,0,0,0,1.85,1.85,1.23,1.23,0,0,0,.34-.75c0-.24-.05-.47-.08-.71a1.66,1.66,0,0,0-.26-.39A1.31,1.31,0,0,0,163.89,318.25Z" style="fill:#fff"></path><path d="M164.72,316.24a1.28,1.28,0,0,0,1.12,1.27c-.12-.82-.25-1.63-.39-2.42A1.29,1.29,0,0,0,164.72,316.24Z" style="fill:#fff"></path><path d="M158,318.25a1.31,1.31,0,1,0,1.85,0A1.31,1.31,0,0,0,158,318.25Z" style="fill:#fff"></path><path d="M161.88,313.4a1.31,1.31,0,1,0-1.3-1.3A1.31,1.31,0,0,0,161.88,313.4Z" style="fill:#fff"></path><circle cx="157.74" cy="316.24" r="1.3" transform="translate(-159.27 472.43) rotate(-89.72)" style="fill:#fff"></circle><circle cx="158.95" cy="313.31" r="1.3" style="fill:#fff"></circle><path d="M161.88,318.42a2.18,2.18,0,1,0-2.17-2.18A2.17,2.17,0,0,0,161.88,318.42Z" style="fill:#fff"></path><path d="M159.82,347.91a16.41,16.41,0,0,0,2.12-.41,2.66,2.66,0,0,0,1.18-.71,2.12,2.12,0,0,0-1.24-.39A2.17,2.17,0,0,0,159.82,347.91Z" style="fill:#fff"></path><path d="M157.74,347.27a1.29,1.29,0,0,0-1.06.58,10.59,10.59,0,0,0,2.21.14A1.31,1.31,0,0,0,157.74,347.27Z" style="fill:#fff"></path><circle cx="158.95" cy="345.65" r="1.3" style="fill:#fff"></circle><path d="M161.88,345.74a1.31,1.31,0,1,0,0-2.61,1.31,1.31,0,0,0,0,2.61Z" style="fill:#fff"></path><path d="M163.64,346.19a8.26,8.26,0,0,0,1-1.81,1.26,1.26,0,0,0-.74.34A1.3,1.3,0,0,0,163.64,346.19Z" style="fill:#fff"></path><path d="M130.88,257a1.31,1.31,0,0,0,1.31-1.31,1.29,1.29,0,0,0-.71-1.14,15.42,15.42,0,0,0-1.85,1.42A1.29,1.29,0,0,0,130.88,257Z" style="fill:#fff"></path><path d="M135.78,252.61l-.81.26H135A1.23,1.23,0,0,0,135.78,252.61Z" style="fill:#fff"></path><path d="M132.89,255.43a1.31,1.31,0,0,0,1.85-1.85,1.33,1.33,0,0,0-.74-.34c-.44.18-.86.38-1.28.6A1.3,1.3,0,0,0,132.89,255.43Z" style="fill:#fff"></path><path d="M130.88,286.75a1.31,1.31,0,1,0,1.31,1.3A1.3,1.3,0,0,0,130.88,286.75Z" style="fill:#fff"></path><path d="M130.88,281.73a2.18,2.18,0,1,0,2.18,2.18A2.18,2.18,0,0,0,130.88,281.73Z" style="fill:#fff"></path><path d="M135,282.61a1.3,1.3,0,1,0,1.3,1.3A1.31,1.31,0,0,0,135,282.61Z" style="fill:#fff"></path><path d="M132.89,285.92a1.3,1.3,0,1,0,1.85,0A1.3,1.3,0,0,0,132.89,285.92Z" style="fill:#fff"></path><path d="M128.88,280.06a1.3,1.3,0,1,0,0,1.84A1.31,1.31,0,0,0,128.88,280.06Z" style="fill:#fff"></path><path d="M130.88,281.07a1.31,1.31,0,1,0-1.3-1.3A1.31,1.31,0,0,0,130.88,281.07Z" style="fill:#fff"></path><path d="M128.88,287.76a1.3,1.3,0,0,0-1.85-1.84s0,0,0,0c.2.7.42,1.42.64,2.15A1.29,1.29,0,0,0,128.88,287.76Z" style="fill:#fff"></path><path d="M134.74,281.9a1.3,1.3,0,1,0-1.85,0A1.3,1.3,0,0,0,134.74,281.9Z" style="fill:#fff"></path><path d="M128,283.91a1.3,1.3,0,0,0-1.3-1.3,1.25,1.25,0,0,0-.63.18c.22.78.45,1.59.69,2.41A1.29,1.29,0,0,0,128,283.91Z" style="fill:#fff"></path><path d="M148.9,268.74a1.31,1.31,0,1,0,1.3,1.3A1.31,1.31,0,0,0,148.9,268.74Z" style="fill:#fff"></path><path d="M145,267.9a1.31,1.31,0,1,0,1.85,0A1.33,1.33,0,0,0,145,267.9Z" style="fill:#fff"></path><path d="M148.9,263.72a2.18,2.18,0,1,0,2.17,2.18A2.17,2.17,0,0,0,148.9,263.72Z" style="fill:#fff"></path><path d="M146.06,265.9a1.31,1.31,0,1,0-2.61,0,1.31,1.31,0,0,0,2.61,0Z" style="fill:#fff"></path><path d="M146.89,263.89a1.31,1.31,0,1,0-1.85,0A1.31,1.31,0,0,0,146.89,263.89Z" style="fill:#fff"></path><path d="M148.9,263.06a1.31,1.31,0,1,0-1.31-1.31A1.31,1.31,0,0,0,148.9,263.06Z" style="fill:#fff"></path><path d="M150.91,263.89a1.34,1.34,0,0,0,.48.3l-.07-2.42a1.22,1.22,0,0,0-.41.27A1.31,1.31,0,0,0,150.91,263.89Z" style="fill:#fff"></path><path d="M150.91,269.75a1.19,1.19,0,0,0,.65.33l-.07-2.49a1.27,1.27,0,0,0-.58,2.16Z" style="fill:#fff"></path><path d="M153,296.93a1.3,1.3,0,1,0,1.31,1.3A1.3,1.3,0,0,0,153,296.93Z" style="fill:#fff"></path><path d="M152.75,296.22a1.3,1.3,0,1,0-1.84,0A1.3,1.3,0,0,0,152.75,296.22Z" style="fill:#fff"></path><path d="M150.91,300.24a1.3,1.3,0,1,0,1.84,0A1.3,1.3,0,0,0,150.91,300.24Z" style="fill:#fff"></path><path d="M148.9,295.39a1.31,1.31,0,1,0-1.31-1.3A1.3,1.3,0,0,0,148.9,295.39Z" style="fill:#fff"></path><path d="M148.9,296.05a2.18,2.18,0,1,0,2.17,2.18A2.18,2.18,0,0,0,148.9,296.05Z" style="fill:#fff"></path><path d="M146.06,298.23a1.31,1.31,0,1,0-1.31,1.3A1.31,1.31,0,0,0,146.06,298.23Z" style="fill:#fff"></path><path d="M145,300.24a1.3,1.3,0,1,0,1.85,0A1.3,1.3,0,0,0,145,300.24Z" style="fill:#fff"></path><path d="M146.89,296.22a1.3,1.3,0,1,0-1.85,0A1.3,1.3,0,0,0,146.89,296.22Z" style="fill:#fff"></path><path d="M148.9,301.07a1.31,1.31,0,1,0,1.3,1.3A1.31,1.31,0,0,0,148.9,301.07Z" style="fill:#fff"></path><path d="M148.9,328.39a2.18,2.18,0,1,0,2.17,2.17A2.17,2.17,0,0,0,148.9,328.39Z" style="fill:#fff"></path><path d="M150.91,332.57a1.3,1.3,0,1,0,1.84,0A1.31,1.31,0,0,0,150.91,332.57Z" style="fill:#fff"></path><path d="M152.75,328.56a1.3,1.3,0,1,0-1.84,0A1.31,1.31,0,0,0,152.75,328.56Z" style="fill:#fff"></path><path d="M148.9,333.4a1.31,1.31,0,1,0,0,2.61,1.31,1.31,0,0,0,0-2.61Z" style="fill:#fff"></path><path d="M153,329.26a1.31,1.31,0,0,0,0,2.61,1.31,1.31,0,1,0,0-2.61Z" style="fill:#fff"></path><path d="M145,332.57a1.31,1.31,0,1,0,1.85,0A1.31,1.31,0,0,0,145,332.57Z" style="fill:#fff"></path><path d="M148.9,327.72a1.31,1.31,0,0,0,0-2.61,1.31,1.31,0,1,0,0,2.61Z" style="fill:#fff"></path><path d="M146.06,330.56a1.31,1.31,0,1,0-1.31,1.31A1.31,1.31,0,0,0,146.06,330.56Z" style="fill:#fff"></path><path d="M146.89,328.56a1.31,1.31,0,1,0-1.85,0A1.33,1.33,0,0,0,146.89,328.56Z" style="fill:#fff"></path><path d="M123.61,269.1a18.75,18.75,0,0,0,.39,4.79v-7.32C123.84,267.38,123.7,268.22,123.61,269.1Z" style="fill:none"></path></g><path d="M151.18,256.61a16.56,16.56,0,0,0-12.5-4.52c-7.53.64-14,6.46-15.07,17s21.32,68.49,25.2,73.23,7.32,6.68,13.13,5.17,6-26.92,1.94-38.55-12.27-37.26-12.27-37.26" style="fill:none;stroke:#263238;stroke-linecap:round;stroke-linejoin:round"></path><path d="M163.88,309c-1.92-5.48-4.75-14.05-7.21-21.59-12.94-3.7-21.53,3.76-26.1,9.75,6.62,19.65,15.87,42.33,18.24,45.22,3.87,4.74,7.32,6.68,13.13,5.17S168,320.58,163.88,309Z" style="fill:#fff;stroke:#263238;stroke-linecap:round;stroke-linejoin:round"></path><path d="M165.17,239.38s-2.8,4.74-4.95,6.46-5.6,1.94-5.6,6,4.09,12.28,5.6,18.74,1.72,14.86-.21,24.77-11,23.26-12.71,32.73,3.66,21.33,13.14,19.6,15.29-26.7,15.29-40.49-2.8-30.8-.86-36,7.32-14,5.38-20.25-5.6-7.32-7.32-9.26S168.84,235.07,165.17,239.38Z" style="fill:#fff;stroke:#263238;stroke-linecap:round;stroke-linejoin:round"></path><path d="M227.42,429.13s-3.18-23.55-8.32-40.18c-35.61,13.58-72.84,5.88-86.23,2.29-.14.5-.29,1-.43,1.49-5.6,19.38-8.83,36.4-8.83,36.4Z" style="fill:#263238;stroke:#263238;stroke-linecap:round;stroke-linejoin:round"></path><path d="M121.24,129.32l14,56.22s4.95,3.87,24.33-7.54,8.84-18.74,8.84-18.74Z" style="fill:#fff"></path><g style="clip-path:url(#freepik--clip-path-4--inject-114)"><path d="M147.71,146.13a156,156,0,0,1-16.06,25l3.36,13.5a177,177,0,0,0,22.05-32.58Z" style="fill:#DDA217"></path><path d="M168.41,159.26l-1.24-.79c-3.88,7.06-8.51,14.88-13.9,23,1.91-.95,4-2.09,6.3-3.44C179,166.58,168.41,159.26,168.41,159.26Z" style="fill:#DDA217"></path><path d="M124.38,141.93,128,156.44a172.69,172.69,0,0,0,10.37-16.25l-9.39-6C127.59,136.7,126.06,139.28,124.38,141.93Z" style="fill:#DDA217"></path></g><path d="M121.24,129.32l14,56.22s4.95,3.87,24.33-7.54,8.84-18.74,8.84-18.74Z" style="fill:none;stroke:#263238;stroke-linecap:round;stroke-linejoin:round"></path><path d="M121.24,129.32s-3.66,14.22-9.48,23.05S102.5,159.91,98.62,167s-2.15,21.11-2.15,21.11l5.17-.65s-6-11,1.08-19.6,15.72-10.55,15.93-18.73S121.24,129.32,121.24,129.32Z" style="fill:#263238;stroke:#263238;stroke-linecap:round;stroke-linejoin:round"></path><path d="M121.24,129.32s0,8.4-11.42,16.37-22.18,7.11-25.63,18.95-4.3,15.94-4.3,15.94l4.73-1.07s0-12.71,7.11-19.39,17.23-8.18,20.89-11.41S121.24,129.32,121.24,129.32Z" style="fill:#DDA217;stroke:#263238;stroke-linecap:round;stroke-linejoin:round"></path><path d="M121.24,129.32s-.43,6.68-3.45,21.32-6.89,23.48-3.88,29.94a59.11,59.11,0,0,0,6,10.34l3.66-2.37s-9-5.38-6.9-20S121.24,129.32,121.24,129.32Z" style="fill:#fff;stroke:#263238;stroke-linecap:round;stroke-linejoin:round"></path><line x1="78.81" y1="429.13" x2="419.76" y2="429.13" style="fill:#fff;stroke:#263238;stroke-linecap:round;stroke-linejoin:round"></line></g></svg>