<?xml version="1.0" encoding="UTF-8"?>
<!DOCTYPE svg PUBLIC "-//W3C//DTD SVG 1.1//EN" "http://www.w3.org/Graphics/SVG/1.1/DTD/svg11.dtd">
<!-- Creator: CorelDRAW 2021 (64 Bit) -->
<svg xmlns="http://www.w3.org/2000/svg" xml:space="preserve" width="84px" height="113px" version="1.1" style="shape-rendering:geometricPrecision; text-rendering:geometricPrecision; image-rendering:optimizeQuality; fill-rule:evenodd; clip-rule:evenodd"
viewBox="0 0 84 112"
 xmlns:xlink="http://www.w3.org/1999/xlink"
 xmlns:xodm="http://www.corel.com/coreldraw/odm/2003">
 <defs>
  <style type="text/css">
   <![CDATA[
    .fil0 {fill:white;fill-rule:nonzero}
   ]]>
  </style>
 </defs>
 <g id="Camada_x0020_1">
  <metadata id="CorelCorpID_0Corel-Layer"/>
  <path class="fil0" d="M28.78 85.09l13.22 -13.22 13.22 13.22 6.54 -6.54 -13.23 -13.22 13.23 -13.22 -6.54 -6.53 -13.22 13.22 -13.22 -13.22 -6.54 6.53 13.23 13.22 -13.23 13.22 6.54 6.54zm-14.78 17.58l56 0c0,0 0,0 0,0 0,0 0,0 0,0l0 -74.67 -56 0 0 74.67c0,0 0,0 0,0 0,0 0,0 0,0zm-14 -87.11l0 -9.34 20.84 0 6.23 -6.22 29.86 0 6.23 6.22 20.84 0 0 9.34 -84 0zm14 96.44c-2.49,0 -4.67,-0.93 -6.53,-2.8 -1.87,-1.87 -2.8,-4.05 -2.8,-6.53l0 -84 74.66 0 0 84c0,2.48 -0.93,4.66 -2.8,6.53 -1.86,1.87 -4.04,2.8 -6.53,2.8l-56 0zm0 -9.33l56 0c0,0 0,0 0,0 0,0 0,0 0,0l-56 0c0,0 0,0 0,0 0,0 0,0 0,0z"/>
 </g>
</svg>
