<?xml version="1.0" encoding="UTF-8"?>
<!DOCTYPE svg PUBLIC "-//W3C//DTD SVG 1.1//EN" "http://www.w3.org/Graphics/SVG/1.1/DTD/svg11.dtd">
<!-- Creator: CorelDRAW 2021 (64 Bit) -->
<svg xmlns="http://www.w3.org/2000/svg" xml:space="preserve" width="114px" height="94px" version="1.1" style="shape-rendering:geometricPrecision; text-rendering:geometricPrecision; image-rendering:optimizeQuality; fill-rule:evenodd; clip-rule:evenodd"
viewBox="0 0 115.11 95"
 xmlns:xlink="http://www.w3.org/1999/xlink"
 xmlns:xodm="http://www.corel.com/coreldraw/odm/2003">
 <defs>
  <style type="text/css">
   <![CDATA[
    .fil0 {fill:black;fill-rule:nonzero}
   ]]>
  </style>
 </defs>
 <g id="Camada_x0020_1">
  <metadata id="CorelCorpID_0Corel-Layer"/>
  <path class="fil0" d="M109.25 53.99l-11.24 -11.24 4.59 -4.59c0.84,-0.85 1.95,-1.27 3.32,-1.27 1.38,0 2.49,0.42 3.33,1.27l4.59 4.59c0.85,0.84 1.27,1.95 1.27,3.33 0,1.37 -0.42,2.48 -1.27,3.32l-4.59 4.59zm-52.25 41.01l0 -11.24 34.2 -34.2 11.24 11.24 -34.2 34.2 -11.24 0zm-57 -33.25l0 -9.5 47.5 0 0 9.5 -47.5 0zm0 -26.12l0 -9.51 74.42 0 0 9.51 -74.42 0zm0 -26.13l0 -9.5 74.42 0 0 9.5 -74.42 0z"/>
 </g>
</svg>
