<?xml version="1.0" encoding="UTF-8"?>
<!DOCTYPE svg PUBLIC "-//W3C//DTD SVG 1.1//EN" "http://www.w3.org/Graphics/SVG/1.1/DTD/svg11.dtd">
<!-- Creator: CorelDRAW 2021 (64 Bit) -->
<svg xmlns="http://www.w3.org/2000/svg" xml:space="preserve" width="104.553mm" height="33.3059mm" version="1.1" style="shape-rendering:geometricPrecision; text-rendering:geometricPrecision; image-rendering:optimizeQuality; fill-rule:evenodd; clip-rule:evenodd"
viewBox="0 0 4592.46 1462.95"
 xmlns:xlink="http://www.w3.org/1999/xlink"
 xmlns:xodm="http://www.corel.com/coreldraw/odm/2003">
 <defs>
  <style type="text/css">
   <![CDATA[
    .fil2 {fill:#6B1315}
    .fil3 {fill:#F12824}
    .fil0 {fill:#F9C517}
    .fil4 {fill:white}
    .fil1 {fill:#6B1315;fill-rule:nonzero}
   ]]>
  </style>
 </defs>
 <g id="Camada_x0020_1">
  <metadata id="CorelCorpID_0Corel-Layer"/>
  <path class="fil0" d="M1763.42 711.56l1244.66 0c6.97,0 12.66,5.7 12.66,12.66l0 0c0,6.97 -5.7,12.66 -12.66,12.66l-1244.66 0c-6.97,0 -12.66,-5.7 -12.66,-12.66l0 0c0,-6.96 5.7,-12.66 12.66,-12.66zm1571.72 0l1244.66 0c6.96,0 12.66,5.7 12.66,12.66l0 0c0,6.97 -5.7,12.66 -12.66,12.66l-1244.66 0c-6.96,0 -12.66,-5.7 -12.66,-12.66l0 0c0,-6.96 5.7,-12.66 12.66,-12.66zm-163.54 -83.54c-26.47,0 -44.1,9.43 -44.28,16.07 -0.39,14.94 3.67,33.36 0,44.83 -1.83,5.74 -3.4,9.33 -13.95,10.57 -9.76,1.16 -19.46,2.75 -29.18,4.23 -7.9,1.2 -10.29,13.53 -9.72,22.84 1.4,21.14 7.89,40.17 18.18,44.4 7.33,0.7 14.62,2.11 21.98,2.11 8.21,0 15.62,4.48 18.19,11.85 2.64,7.58 4.69,15.36 7.61,22.84 3.85,9.88 16.91,11.84 31.16,12.68 14.26,-0.84 27.32,-2.8 31.17,-12.68 2.92,-7.48 4.96,-15.26 7.61,-22.84 2.57,-7.37 9.98,-11.85 18.18,-11.85 7.37,0 14.66,-1.41 21.99,-2.11 10.29,-4.23 16.77,-23.27 18.18,-44.4 0.56,-9.31 -1.82,-21.64 -9.73,-22.84 -9.72,-1.48 -19.42,-3.07 -29.18,-4.23 -10.55,-1.24 -12.13,-4.83 -13.95,-10.57 -3.67,-11.47 0.39,-29.89 0,-44.83 -0.18,-6.64 -17.81,-16.07 -44.28,-16.07zm0 93.46c-11.85,-2.53 -22.37,-18.12 -36.67,-7.61 -11.66,8.58 -14.66,30.87 36.67,55.82 51.33,-24.95 48.33,-47.25 36.67,-55.82 -14.3,-10.51 -24.81,5.08 -36.67,7.61z"/>
  <path class="fil1" d="M1817.48 336.77c-16.02,-14.84 -20.51,-33.66 -20.51,-46.89 0,-31.03 25.09,-58.49 62.57,-58.49 31.7,0 57.4,19.84 57.22,52.39l4.92 0 0 -56.38 0 -6.02 -20.17 0c-13.48,-2.96 -30.27,-5.25 -43.58,-5.25 -57.99,0 -89.44,43.06 -89.44,85.96 0,19.67 7.04,44.25 27.55,63.08l97.49 90.46c12.72,11.78 19.92,27.55 19.92,47.39 0,40.7 -31.03,66.13 -68.16,68.16 -45.27,2.54 -78.42,-31.03 -73.33,-83.42l-4.49 0c-7.72,22.81 -9.66,55.19 -5.85,70.88 20.01,20.68 61.21,27.8 86.14,27.8 58.5,0 95.21,-38.83 95.21,-95.12 0,-20.52 -5.17,-43.24 -25.52,-61.97l-99.95 -92.58zm425.51 160.4l-5.09 0c-15.68,38.75 -36.37,66.55 -90.29,66.55l-72.99 0 0 -152.35 86.56 0c13.31,0.51 24.08,11.53 24.08,25.01l0 7.54 4.92 0 0 -80.45 -4.92 0 0 7.54c0,13.65 -11.02,24.76 -24.67,25.01l-85.96 0 0 -157.26 103.77 0c15.85,1.01 28.49,14.16 28.49,30.35l0 9.07 5.09 0 0 -40.78 0 -8.56 0 -14.84c-9.41,3.98 -38.66,8.99 -60.62,9.24l-148.62 0 0 5.09 6.44 0c16.87,0 30.69,12.72 32.47,29.08l0 284.86c-0.34,17.72 -14.83,31.96 -32.64,31.96l-6.44 0 -0.09 5.09 210.93 0 29.59 -82.15zm403.8 -280.87l-4.58 0 -138.78 306.73 -142 -306.9 -4.66 0 -38.32 326.23c-2.63,20.09 -18.91,31.88 -37.05,31.88l-8.14 0 0 5.09 98.51 0 0 -4.83 -7.88 0c-10.93,0 -20.86,-10.77 -19.84,-21.7l22.3 -248.57 130.14 282.23 4.75 0c3.31,-21.02 17.46,-51.97 17.46,-51.97l106.91 -237.64 23.06 255.95c1.01,10.94 -8.9,21.7 -19.84,21.7l-7.88 0 0 4.83 110.55 0 0 -5.09 -8.06 0c-18.23,0 -34.51,-11.78 -37.13,-31.88l-39.51 -326.06zm233.99 357.94l-6.44 0c-17.8,0 -32.3,-14.24 -32.55,-31.96l0 -282.31c0.42,-17.55 14.83,-31.7 32.55,-31.7l6.44 0 0.09 -5.09 -111.32 0 0.09 5.09 6.44 0c17.71,0 32.13,14.16 32.55,31.79l0 282.23c-0.34,17.72 -14.75,31.96 -32.55,31.96l-6.44 0 -0.09 5.09 111.32 0 -0.09 -5.09zm330.38 -350.98l0.08 5.09 9.41 0c17.12,0 31.11,13.74 31.37,30.86l0 252.22 -276.97 -295.79 -5 0c0,0 4.66,28.82 4.66,63.58l0 264.26c-0.34,17.04 -14.24,30.77 -31.37,30.77l-9.41 0 -0.09 5.09 104.79 0 -0.08 -5.09 -9.41 0c-17.04,0 -30.86,-13.48 -31.37,-30.44l0 -253.23 277.4 295.88 4.66 0c0,0 -4.66,-32.13 -4.66,-64.85l0 -262.81c0.51,-16.95 14.33,-30.44 31.37,-30.44l9.41 0 0.08 -5.09 -104.87 0zm301.39 -32.56c27.22,-13.39 54.51,-27.38 81.81,-43.41 -5.43,-9.92 -12.89,-18.82 -20.86,-26.71 -21.54,20.69 -42.98,43.32 -64.52,66.55l3.56 3.56zm1.44 25.44l-4.66 0c0,11.19 -18.82,52.39 -18.82,52.39l-115.3 273.75c-10.34,22.56 -29.17,31.96 -44.6,31.96l-4.58 0 0 5.09 102.41 0 0 -5.09 -4.49 0c-13.06,0 -26.62,-11.45 -19.41,-31.62l33.99 -86.9 137.09 0 32.47 86.65c7.46,20.35 -6.19,31.88 -19.33,31.88l-4.41 0 0 5.09 114.54 0 0 -5.09 -4.24 0c-15.6,0 -34.42,-9.41 -44.76,-32.05l-135.9 -326.06zm-69.43 224.32l64.01 -163.29 61.3 163.29 -125.3 0zm279.26 -217.2l0.09 5.09 6.44 0c17.8,0 32.21,14.24 32.55,31.96l0 282.23c-0.42,17.55 -14.84,31.71 -32.55,31.71l-6.44 0 -0.09 5.09 111.15 0 -0.08 -5.09 -6.44 0c-17.8,0 -32.22,-14.24 -32.56,-31.96l0 -303.17c6.62,0.25 37.39,-1.02 63.33,0.43 37.81,2.03 61.8,31.54 63.08,77.49 0.34,11.19 -1.02,23.31 -3.22,30.44 -14.42,45.87 -52.99,52.14 -79.44,52.81 -15.26,0.43 -26.88,0.17 -26.88,0.17l0 4.75c18.65,0 33.49,17.63 46.71,34.34 3.98,4.92 61.3,88.25 67.06,95.21 15.94,19.07 41.37,44.59 88.76,44.59l27.89 0 0 -5.09c-29.93,-0.25 -48.75,-16.11 -69.18,-38.49 -19.67,-21.53 -63.59,-84.1 -63.59,-84.1 -9.83,-13.91 -25.43,-30.78 -36.37,-35.78 48.91,0 86.39,-47.82 86.39,-96.99 0,-59.34 -37.72,-95.63 -99.45,-95.63l-137.17 0zm440.34 350.98l-6.44 0c-17.8,0 -32.3,-14.24 -32.55,-31.96l0 -282.31c0.42,-17.55 14.83,-31.7 32.55,-31.7l6.44 0 0.09 -5.09 -111.32 0 0.09 5.09 6.44 0c17.71,0 32.13,14.16 32.55,31.79l0 282.23c-0.34,17.72 -14.75,31.96 -32.55,31.96l-6.44 0 -0.09 5.09 111.32 0 -0.09 -5.09zm238.48 -358.1c-108.18,0 -182.87,74.1 -182.87,185.16 0,111.06 74.69,185.16 182.87,185.16 108.18,0 182.78,-74.1 182.78,-185.16 0,-111.06 -74.61,-185.16 -182.78,-185.16zm0 355.05c-86.31,0 -143.87,-67.91 -143.87,-169.9 0,-101.99 57.56,-169.9 143.87,-169.9 86.3,0 143.78,67.91 143.78,169.9 0,101.99 -57.48,169.9 -143.78,169.9z"/>
  <path class="fil1" d="M1763.6 910.04l0.04 2.41 3.05 0c7.98,0 14.55,6.05 15.31,13.83l0 134.62c-0.16,8.38 -6.98,15.11 -15.4,15.11l-3.04 0 -0.04 2.41 52.63 0 -0.04 -2.41 -3.01 0c-8.42,0 -15.27,-6.73 -15.43,-15.11l0 -143.64 27.74 0c20.45,0 31.83,14.71 32.43,36.84 0.12,5.29 -0.48,11.1 -1.56,14.51 -10.82,34.44 -50.39,25.9 -50.39,25.9l0 2.28c30.19,15.87 70,-3.65 70,-40.29 0,-28.78 -18.84,-46.46 -49.59,-46.46l-62.7 0zm268.62 -3.37l-2.17 0c0,5.29 -8.9,24.78 -8.9,24.78l-54.52 129.45c-4.89,10.7 -13.79,15.11 -21.09,15.11l-2.17 0 0 2.41 48.43 0 0 -2.36 -2.12 0c-6.18,0 -12.59,-5.42 -9.18,-14.96l16.07 -41.13 64.82 0 15.36 40.97c3.53,9.62 -2.93,15.11 -9.14,15.11l-2.09 0 0 2.36 54.16 0 0 -2.41 -2.04 0c-7.34,0 -16.23,-4.41 -21.13,-15.11l-64.3 -154.22zm-32.79 106.08l30.27 -77.21 28.99 77.21 -59.25 0zm206.88 -102.71l0.04 2.41 3.05 0c7.94,0 15.31,6.01 15.31,13.75l0 134.74c-0.16,8.34 -6.98,15.07 -15.4,15.07l-3.04 0 -0.04 2.41 81.42 0c51.39,0 86.39,-33.63 86.39,-84.11 0,-50.55 -35,-84.23 -86.39,-84.23l-81.34 -0.04zm34.08 7.26l47.26 0c41.01,0 68.35,30.83 68.35,77.01 0,46.1 -27.1,76.81 -68.35,76.81l-47.26 0 0 -153.82zm229.89 -7.26l0.04 2.41 3.04 0c8.42,0 15.23,6.73 15.4,15.11l0 133.46c-0.2,8.3 -7.01,14.99 -15.4,14.99l-3.04 0 -0.04 2.41 52.56 0 -0.04 -2.41 -3.05 0c-8.42,0 -15.23,-6.73 -15.4,-15.11l0 -143.36c3.13,0.12 17.68,-0.48 29.95,0.2 17.88,0.96 29.22,14.91 29.82,36.64 0.16,5.29 -0.48,11.03 -1.52,14.39 -6.81,21.69 -25.05,24.65 -37.56,24.97 -7.22,0.2 -12.71,0.08 -12.71,0.08l0 2.24c8.82,0 15.84,8.34 22.09,16.23 1.88,2.32 28.99,41.73 31.71,45.02 7.54,9.02 19.56,21.09 41.97,21.09l13.19 0 0 -2.41c-14.15,-0.12 -23.05,-7.62 -32.72,-18.2 -9.3,-10.18 -30.07,-39.77 -30.07,-39.77 -4.65,-6.58 -12.03,-14.55 -17.2,-16.92 23.13,0 40.85,-22.61 40.85,-45.86 0,-28.06 -17.84,-45.22 -47.02,-45.22l-64.86 0zm344.11 129.52l-2.41 0c-7.41,18.32 -17.2,31.47 -42.69,31.47l-34.52 0 0 -72.04 40.93 0c6.29,0.24 11.39,5.45 11.39,11.82l0 3.57 2.32 0 0 -38.04 -2.32 0 0 3.57c0,6.45 -5.21,11.71 -11.67,11.82l-40.65 0 0 -74.36 49.07 0c7.5,0.48 13.47,6.69 13.47,14.35l0 4.29 2.41 0 0 -19.28 0 -4.05 0 -7.01c-4.45,1.88 -18.28,4.25 -28.67,4.37l-70.27 0 0 2.41 3.05 0c7.98,0 14.51,6.01 15.35,13.75l0 134.7c-0.16,8.38 -7.01,15.11 -15.44,15.11l-3.04 0 -0.04 2.41 99.74 0 13.99 -38.85zm243.93 -129.52l0.04 2.41 3.05 0c7.94,0 15.31,6.01 15.31,13.75l0 134.74c-0.16,8.34 -6.98,15.07 -15.4,15.07l-3.04 0 -0.04 2.41 81.42 0c51.39,0 86.39,-33.63 86.39,-84.11 0,-50.55 -35,-84.23 -86.39,-84.23l-81.34 -0.04zm34.08 7.26l47.26 0c41.01,0 68.35,30.83 68.35,77.01 0,46.1 -27.1,76.81 -68.35,76.81l-47.26 0 0 -153.82zm282.49 158.71l-3.05 0c-8.42,0 -15.27,-6.73 -15.39,-15.11l0 -133.5c0.2,-8.3 7.01,-15 15.39,-15l3.05 0 0.04 -2.4 -52.63 0 0.04 2.4 3.04 0c8.38,0 15.19,6.7 15.4,15.04l0 133.46c-0.16,8.38 -6.98,15.11 -15.4,15.11l-3.04 0 -0.04 2.41 52.63 0 -0.04 -2.41zm230.98 -165.96l0.04 2.41 4.45 0c8.1,0 14.71,6.49 14.83,14.59l0 119.26 -130.97 -139.87 -2.37 0c0,0 2.21,13.63 2.21,30.07l0 124.95c-0.16,8.06 -6.73,14.55 -14.83,14.55l-4.45 0 -0.04 2.41 49.55 0 -0.04 -2.41 -4.45 0c-8.06,0 -14.6,-6.37 -14.83,-14.39l0 -119.74 131.17 139.91 2.21 0c0,0 -2.21,-15.19 -2.21,-30.67l0 -124.28c0.24,-8.02 6.78,-14.39 14.83,-14.39l4.45 0 0.04 -2.41 -49.59 0zm316.36 90.12l0 -2.41 -47.1 0 0 2.41 3.81 0c7.78,0 12.35,3.93 12.35,10.94l0 42.66c-13.87,12.79 -33.35,20.85 -54.24,20.85 -40.77,-0.2 -68.43,-32.35 -68.43,-80.38 0,-48.19 27.66,-80.34 68.43,-80.34 31.75,0 53.76,15.47 61.06,43.02l2 0 -4.85 -33.99c-14.11,-9.1 -31.83,-16.24 -58.29,-16.24 -51.08,0 -86.39,35.04 -86.39,87.55 0,52.35 35.32,87.31 86.47,87.55 36.12,0 58.57,-16.4 69.55,-30.99l0 -39.77c-0.12,-6.94 4.25,-10.86 12.03,-10.86l3.61 0zm200.34 39.4c-7.41,18.32 -17.2,31.47 -42.69,31.47l-34.47 0 0 -143.44c0.12,-8.38 6.98,-15.15 15.39,-15.15l3.05 0 0.04 -2.41 -52.63 0 0.04 2.41 3.04 0c8.42,0 15.23,6.77 15.4,15.15l0 133.3c-0.16,8.38 -6.98,15.11 -15.4,15.11l-3.04 0 -0.04 2.41 99.74 0 13.99 -38.85 -2.41 0zm208.73 0l-2.41 0c-7.41,18.32 -17.2,31.47 -42.69,31.47l-34.52 0 0 -72.04 40.93 0c6.29,0.24 11.39,5.45 11.39,11.82l0 3.57 2.32 0 0 -38.04 -2.32 0 0 3.57c0,6.45 -5.21,11.71 -11.67,11.82l-40.65 0 0 -74.36 49.07 0c7.5,0.48 13.47,6.69 13.47,14.35l0 4.29 2.41 0 0 -19.28 0 -4.05 0 -7.01c-4.45,1.88 -18.28,4.25 -28.67,4.37l-70.27 0 0 2.41 3.05 0c7.98,0 14.51,6.01 15.35,13.75l0 134.7c-0.16,8.38 -7.01,15.11 -15.44,15.11l-3.04 0 -0.04 2.41 99.74 0 13.99 -38.85zm97.4 -129.52l0.04 2.41 3.04 0c8.42,0 15.23,6.73 15.4,15.11l0 133.46c-0.2,8.3 -7.01,14.99 -15.4,14.99l-3.04 0 -0.04 2.41 52.56 0 -0.04 -2.41 -3.05 0c-8.42,0 -15.23,-6.73 -15.4,-15.11l0 -143.36c3.13,0.12 17.68,-0.48 29.95,0.2 17.88,0.96 29.22,14.91 29.82,36.64 0.16,5.29 -0.48,11.03 -1.52,14.39 -6.81,21.69 -25.05,24.65 -37.56,24.97 -7.22,0.2 -12.71,0.08 -12.71,0.08l0 2.24c8.82,0 15.84,8.34 22.09,16.23 1.88,2.32 28.99,41.73 31.71,45.02 7.54,9.02 19.56,21.09 41.97,21.09l13.19 0 0 -2.41c-14.15,-0.12 -23.05,-7.62 -32.72,-18.2 -9.3,-10.18 -30.07,-39.77 -30.07,-39.77 -4.65,-6.58 -12.03,-14.55 -17.2,-16.92 23.13,0 40.85,-22.61 40.85,-45.86 0,-28.06 -17.84,-45.22 -47.02,-45.22l-64.86 0z"/>
  <path class="fil1" d="M2200.28 1314.38c-4.92,12.14 -11.4,20.86 -28.3,20.86l-22.85 0 0 -95.08c0.08,-5.56 4.63,-10.05 10.21,-10.05l2.02 0 0.03 -1.59 -34.89 0 0.03 1.59 2.02 0c5.58,0 10.1,4.49 10.2,10.05l0 88.35c-0.11,5.56 -4.63,10.02 -10.2,10.02l-2.02 0 -0.03 1.59 66.12 0 9.27 -25.75 -1.59 0zm91.57 -85.86l0 1.59 2.6 0c4.52,0 8.21,3.22 8.42,7.68l0 62.9c-0.05,21.98 -14.24,36.65 -35.53,36.65 -20.33,0 -33.86,-15.49 -33.86,-38.72l0 -60.85c0.18,-4.46 3.88,-7.65 8.4,-7.65l2.6 0 0 -1.59 -32.39 0 0 1.59 2.6 0c4.59,0 8.34,3.32 8.42,7.89l0 62.96c0,24.84 17.7,41.4 44.22,41.4 25.77,0 42.97,-16.66 42.97,-41.67l0 -63.06c0.29,-4.38 3.94,-7.52 8.42,-7.52l2.6 0 0 -1.59 -29.5 0zm146.98 65.08c-3.61,32.66 -22.77,43.92 -45.41,43.98 -26.82,-0.64 -44.99,-21.52 -44.99,-53.57 0,-31.73 17.86,-52.94 45.89,-52.94 19.16,0 34.79,9.89 39.62,28.52l1.33 0 -3.22 -22.53c-9.33,-6.14 -22.08,-10.76 -37.71,-10.76 -35.07,0 -57.88,23.28 -57.88,57.88 0,35.24 23.6,58.04 56.95,58.2 22.13,0 36.4,-10.02 44.8,-23.73l1.94 -25.03 -1.33 0zm66.54 -67.31l-1.43 0c0,3.51 -5.9,16.42 -5.9,16.42l-36.14 85.81c-3.24,7.1 -9.14,10.02 -13.98,10.02l-1.44 0 0 1.59 32.1 0 0 -1.57 -1.41 0c-4.09,0 -8.35,-3.59 -6.09,-9.91l10.66 -27.26 42.97 0 10.18 27.16c2.34,6.38 -1.94,10.02 -6.06,10.02l-1.38 0 0 1.57 35.9 0 0 -1.59 -1.35 0c-4.86,0 -10.77,-2.92 -14.01,-10.02l-42.62 -102.23zm-21.73 70.31l20.06 -51.18 19.21 51.18 -39.27 0zm105.28 -32.5c-5.02,-4.65 -6.43,-10.55 -6.43,-14.69 0,-9.72 7.87,-18.34 19.61,-18.34 9.94,0 17.99,6.22 17.94,16.42l1.54 0 0 -17.67 0 -1.88 -6.32 0c-4.23,-0.93 -9.49,-1.65 -13.66,-1.65 -18.18,0 -28.04,13.5 -28.04,26.94 0,6.17 2.21,13.87 8.64,19.77l30.56 28.35c3.98,3.69 6.25,8.64 6.25,14.86 0,12.76 -9.73,20.73 -21.36,21.36 -14.19,0.8 -24.58,-9.72 -22.99,-26.15l-1.41 0c-2.42,7.15 -3.03,17.3 -1.84,22.22 6.27,6.48 19.19,8.71 27,8.71 18.33,0 29.84,-12.17 29.84,-29.82 0,-6.43 -1.62,-13.55 -8,-19.42l-31.33 -29.02zm97.9 -35.58l0.03 1.59 2.02 0c5.26,0 10.15,3.98 10.15,9.11l0 89.31c-0.11,5.53 -4.63,9.99 -10.2,9.99l-2.02 0 -0.03 1.59 53.97 0c34.07,0 57.27,-22.3 57.27,-55.75 0,-33.51 -23.2,-55.83 -57.27,-55.83l-53.92 -0.03zm22.59 4.81l31.33 0c27.18,0 45.31,20.43 45.31,51.04 0,30.56 -17.97,50.92 -45.31,50.92l-31.33 0 0 -101.96zm164.94 -7.04c-33.91,0 -57.32,23.22 -57.32,58.03 0,34.81 23.41,58.04 57.32,58.04 33.91,0 57.3,-23.22 57.3,-58.04 0,-34.81 -23.39,-58.03 -57.3,-58.03zm0 111.29c-27.05,0 -45.09,-21.29 -45.09,-53.25 0,-31.97 18.04,-53.25 45.09,-53.25 27.05,0 45.07,21.29 45.07,53.25 0,31.97 -18.02,53.25 -45.07,53.25zm114.56 -109.06l0.03 1.59 2.02 0c5.58,0 10.1,4.46 10.2,10.01l0 88.46c-0.13,5.5 -4.65,9.94 -10.2,9.94l-2.02 0 -0.03 1.59 34.84 0 -0.03 -1.59 -2.02 0c-5.58,0 -10.1,-4.46 -10.2,-10.02l0 -95.03c2.07,0.08 11.72,-0.32 19.85,0.13 11.85,0.64 19.37,9.89 19.77,24.29 0.11,3.51 -0.32,7.31 -1.01,9.54 -4.52,14.38 -16.61,16.34 -24.9,16.56 -4.78,0.13 -8.42,0.05 -8.42,0.05l0 1.49c5.85,0 10.5,5.53 14.64,10.76 1.25,1.54 19.21,27.66 21.02,29.84 4.99,5.98 12.97,13.98 27.82,13.98l8.75 0 0 -1.59c-9.38,-0.08 -15.28,-5.05 -21.69,-12.07 -6.17,-6.75 -19.93,-26.36 -19.93,-26.36 -3.08,-4.36 -7.97,-9.65 -11.4,-11.21 15.33,0 27.08,-14.99 27.08,-30.4 0,-18.6 -11.82,-29.97 -31.17,-29.97l-43 0zm138.02 110.01l-2.02 0c-5.58,0 -10.12,-4.46 -10.21,-10.02l0 -88.49c0.14,-5.5 4.65,-9.94 10.21,-9.94l2.02 0 0.03 -1.59 -34.89 0 0.03 1.59 2.02 0c5.55,0 10.07,4.44 10.2,9.96l0 88.46c-0.11,5.56 -4.63,10.02 -10.2,10.02l-2.02 0 -0.03 1.59 34.89 0 -0.03 -1.59zm74.75 -112.24c-33.91,0 -57.32,23.22 -57.32,58.03 0,34.81 23.41,58.04 57.32,58.04 33.91,0 57.3,-23.22 57.3,-58.04 0,-34.81 -23.39,-58.03 -57.3,-58.03zm0 111.29c-27.05,0 -45.09,-21.29 -45.09,-53.25 0,-31.97 18.04,-53.25 45.09,-53.25 27.05,0 45.07,21.29 45.07,53.25 0,31.97 -18.02,53.25 -45.07,53.25zm192.5 -109.08l0 1.59 1.41 0c4.12,0 8.39,3.58 6.06,9.96l-34.68 83.52 -33.4 -83.52c-2.34,-6.38 1.89,-9.96 6.01,-9.96l1.41 0 0 -1.59 -35.9 0 0 1.62 1.27 0c4.95,0 10.84,2.89 14.06,9.99l44.8 102.26 1.46 0c0,-3.51 5.9,-16.42 5.9,-16.42l38.32 -85.96c3.25,-7.01 9.12,-9.86 13.98,-9.86l1.41 0 0 -1.62 -32.1 0zm115.43 85.89l-1.59 0c-4.92,12.14 -11.4,20.86 -28.3,20.86l-22.88 0 0 -47.75 27.13 0c4.17,0.16 7.55,3.61 7.55,7.84l0 2.36 1.54 0 0 -25.22 -1.54 0 0 2.37c0,4.28 -3.45,7.76 -7.73,7.84l-26.95 0 0 -49.29 32.53 0c4.97,0.32 8.93,4.44 8.93,9.51l0 2.84 1.59 0 0 -12.78 0 -2.68 0 -4.65c-2.95,1.25 -12.12,2.82 -19,2.9l-46.58 0 0 1.59 2.02 0c5.29,0 9.62,3.98 10.18,9.11l0 89.29c-0.11,5.56 -4.65,10.02 -10.23,10.02l-2.02 0 -0.03 1.59 66.12 0 9.27 -25.75zm15.02 -85.86l0.03 1.59 2.02 0c5.58,0 10.1,4.46 10.2,10.01l0 88.46c-0.13,5.5 -4.65,9.94 -10.2,9.94l-2.02 0 -0.03 1.59 34.84 0 -0.03 -1.59 -2.02 0c-5.58,0 -10.1,-4.46 -10.2,-10.02l0 -95.03c2.07,0.08 11.72,-0.32 19.85,0.13 11.85,0.64 19.37,9.89 19.77,24.29 0.11,3.51 -0.32,7.31 -1.01,9.54 -4.52,14.38 -16.61,16.34 -24.9,16.56 -4.78,0.13 -8.42,0.05 -8.42,0.05l0 1.49c5.85,0 10.5,5.53 14.64,10.76 1.25,1.54 19.21,27.66 21.02,29.84 4.99,5.98 12.97,13.98 27.82,13.98l8.75 0 0 -1.59c-9.38,-0.08 -15.28,-5.05 -21.69,-12.07 -6.17,-6.75 -19.93,-26.36 -19.93,-26.36 -3.08,-4.36 -7.97,-9.65 -11.4,-11.21 15.33,0 27.08,-14.99 27.08,-30.4 0,-18.6 -11.82,-29.97 -31.17,-29.97l-43 0zm103.21 0l0.03 1.59 2.02 0c5.26,0 10.15,3.98 10.15,9.11l0 89.31c-0.11,5.53 -4.63,9.99 -10.2,9.99l-2.02 0 -0.03 1.59 53.97 0c34.07,0 57.27,-22.3 57.27,-55.75 0,-33.51 -23.2,-55.83 -57.27,-55.83l-53.92 -0.03zm22.59 4.81l31.33 0c27.18,0 45.31,20.43 45.31,51.04 0,30.56 -17.97,50.92 -45.31,50.92l-31.33 0 0 -101.96zm178.23 81.05l-1.59 0c-4.92,12.14 -11.4,20.86 -28.3,20.86l-22.88 0 0 -47.75 27.13 0c4.17,0.16 7.55,3.61 7.55,7.84l0 2.36 1.54 0 0 -25.22 -1.54 0 0 2.37c0,4.28 -3.45,7.76 -7.73,7.84l-26.95 0 0 -49.29 32.53 0c4.97,0.32 8.93,4.44 8.93,9.51l0 2.84 1.59 0 0 -12.78 0 -2.68 0 -4.65c-2.95,1.25 -12.12,2.82 -19,2.9l-46.58 0 0 1.59 2.02 0c5.29,0 9.62,3.98 10.18,9.11l0 89.29c-0.11,5.56 -4.65,10.02 -10.23,10.02l-2.02 0 -0.03 1.59 66.12 0 9.27 -25.75zm52.33 -20.73l0.96 3.59 47.83 0 0.95 -3.59 -0.95 -3.59 -47.83 0 -0.96 3.59zm214.56 -67.31l-1.44 0 -43.5 96.14 -44.51 -96.19 -1.46 0 -12.01 102.25c-0.82,6.3 -5.93,9.99 -11.61,9.99l-2.55 0 0 1.59 30.87 0 0 -1.52 -2.47 0c-3.43,0 -6.54,-3.37 -6.22,-6.8l6.99 -77.91 40.79 88.46 1.49 0c1.04,-6.59 5.47,-16.29 5.47,-16.29l33.51 -74.49 7.23 80.22c0.32,3.43 -2.79,6.8 -6.22,6.8l-2.47 0 0 1.52 34.65 0 0 -1.59 -2.53 0c-5.71,0 -10.81,-3.69 -11.64,-9.99l-12.38 -102.2zm48.12 2.02c-6.91,-0.03 -16.23,-1.65 -19.21,-2.89l0 20.04 1.59 -0.03 0 -2.84c0,-5.1 4.04,-9.27 9.11,-9.49l30.24 0 0 95.64c-0.24,5.42 -4.73,9.75 -10.2,9.75l-2.02 0 -0.03 1.59 34.89 0 -0.03 -1.59 -2.02 0c-5.53,0 -10.01,-4.38 -10.2,-9.89l0 -95.51 30.22 0c5.07,0.22 9.09,4.39 9.09,9.49l0 2.84 1.62 0.03 0 -20.04c-3,1.25 -12.3,2.87 -19.21,2.89l-53.84 0z"/>
  <path class="fil0" d="M731.47 0c403.98,0 731.48,327.49 731.48,731.48 0,403.98 -327.49,731.47 -731.48,731.47 -403.98,0 -731.47,-327.49 -731.47,-731.47 0,-403.98 327.49,-731.48 731.47,-731.48z"/>
  <path class="fil2" d="M762.2 47.32c353.79,15.63 637.79,299.64 653.42,653.42l-78.19 0c-16.9,0 -30.73,13.83 -30.73,30.73l0 0c0,16.9 13.83,30.73 30.73,30.73l78.19 0c-15.63,353.78 -299.64,637.79 -653.42,653.42l0 -78.19c0,-16.9 -13.83,-30.73 -30.73,-30.73l-0 0c-16.9,0 -30.73,13.83 -30.73,30.73l0 78.19c-353.79,-15.63 -637.79,-299.63 -653.42,-653.42l78.19 0c16.9,0 30.73,-13.83 30.73,-30.73l0 0c0,-16.9 -13.83,-30.73 -30.73,-30.73l-78.19 0c15.63,-353.79 299.64,-637.79 653.42,-653.42l0 78.19c0,16.9 13.83,30.73 30.73,30.73l0 0c16.9,0 30.73,-13.83 30.73,-30.73l0 -78.19z"/>
  <path class="fil0" d="M735.52 212.74c6.79,183.61 248.08,205.99 10.18,364.98l0 -79.87 50.59 0c7.82,0 14.23,-6.4 14.23,-14.23l0 0c0,-7.82 -6.41,-14.22 -14.23,-14.22l-50.59 0 0 -49.79c0,-7.82 -6.4,-14.23 -14.23,-14.23l0 0c-7.82,0 -14.22,6.4 -14.22,14.23l0 49.79 -50.59 0c-7.82,0 -14.23,6.4 -14.23,14.22l0 0c0,7.82 6.4,14.23 14.23,14.23l50.59 0 0 80.65c-229,-141.24 0.63,-222.83 18.27,-365.76z"/>
  <path class="fil3" d="M731.47 987.13c0.63,-0.37 -128.77,-64.47 -217.22,-166.55 -176.79,-204.05 -89.49,-413.66 203,-211.06l0 34.81c0,7.83 6.4,14.23 14.22,14.23l0 0c7.83,0 14.23,-6.4 14.23,-14.23l0 -34.81c292.49,-202.6 379.79,7.01 203,211.06 -88.45,102.09 -217.85,166.18 -217.22,166.55z"/>
  <path class="fil4" d="M696.22 1116.95c27.17,-9.33 43.34,-9.33 70.5,0 -24.13,17.06 -46.38,17.06 -70.5,0zm316.65 -734.18c-38.64,-7.2 -68.54,-18.77 -91.21,-33.95l0 -0c28.01,8.06 57.93,11.47 83.64,12.62 -2.42,-6.98 -5.01,-14.53 -7.83,-22.77 -36.64,-106.97 -124.32,-81.84 -209.75,-70.16 45.47,-9.72 101.16,-25.46 145.25,-15.5 22.74,5.14 33.57,7.59 53.9,-9.78 -13.4,18.24 -8.6,31.08 3.51,45.83 9.22,11.22 17.64,25.33 25.16,42.88 5.02,11.69 9.34,21.83 13.23,30.75 24.04,1.72 49.83,4.8 71.64,15.72 31.84,16.01 58,4.26 90.01,-12.22 -19,16.19 -46.84,40.98 -44.86,68.18 0.01,0.13 0.02,0.28 0.04,0.41 1.79,18.65 4.82,25.86 5.09,43.6 26.67,20.36 45.46,39.15 58.25,56.6 21.4,29.21 70.63,24.03 102.63,20.24 -32.6,11.83 -73.22,27.86 -81.63,63.73 -5.39,22.95 -18.68,43 -30.16,61.23 -3.49,5.54 -6.75,10.67 -9.82,15.49 23.93,33.11 48.83,69.2 48.53,108.01 -0.19,25.52 34.77,40.82 54.97,50.13 -25.59,-5.23 -59.97,-12.29 -77.35,9.75 -15.33,19.44 -36.42,32.23 -58.84,42.83 0.3,29.17 -3.78,53.18 -13.09,72.51 -12.94,26.86 15.91,64.96 31.16,86 -17.88,-15.47 -57.6,-49.19 -82.48,-38.35 -18.44,8.03 -41.25,13.13 -68.94,15.6 -7.08,33.52 -14.59,69.04 -34.76,94.03 -22.05,27.33 -6.96,72.78 3.3,102.77 -18.7,-29.82 -45.09,-68.13 -83.29,-69.61 -29.77,-1.15 -58.49,-13.96 -86.41,-27.44 -14.67,12.73 -28.77,22.76 -42.53,29.99 -34.92,18.34 -44.39,77.06 -48.76,112.52 -4.36,-35.46 -13.84,-94.18 -48.75,-112.52 -13.76,-7.23 -27.86,-17.25 -42.53,-29.99 -27.92,13.47 -56.64,26.28 -86.41,27.44 -38.2,1.48 -64.6,39.78 -83.29,69.61 10.26,-29.99 25.35,-75.44 3.3,-102.77 -20.17,-24.99 -27.69,-60.51 -34.76,-94.03 -27.68,-2.46 -50.49,-7.56 -68.94,-15.6 -24.88,-10.83 -64.6,22.88 -82.48,38.35 15.24,-21.04 44.1,-59.14 31.16,-86 -9.31,-19.33 -13.39,-43.34 -13.09,-72.51 -22.42,-10.6 -43.51,-23.39 -58.84,-42.83 -17.37,-22.04 -51.75,-14.98 -77.35,-9.75 20.2,-9.31 55.16,-24.61 54.97,-50.13 -0.3,-38.81 24.6,-74.9 48.53,-108.01 -3.07,-4.82 -6.33,-9.95 -9.82,-15.49 -11.48,-18.23 -24.78,-38.27 -30.17,-61.23 -8.41,-35.88 -49.03,-51.9 -81.63,-63.73 32.01,3.79 81.24,8.97 102.63,-20.24 12.79,-17.45 31.57,-36.24 58.25,-56.6 0.14,-7.3 0.62,-14.83 1.57,-22.64 0.66,-5.55 1.57,-10.76 2.7,-15.66 6.76,-29.42 -23.67,-56.57 -43.99,-73.89 32.01,16.48 58.17,28.23 90.01,12.22 20.7,-10.41 45.86,-13.96 71.64,-15.72 3.88,-8.91 8.21,-19.06 13.23,-30.75 7.53,-17.55 15.94,-31.66 25.16,-42.88 12.11,-14.75 16.91,-27.59 3.51,-45.83 20.33,17.37 31.16,14.92 53.9,9.78 44.09,-9.96 99.78,5.78 145.25,15.5 -85.42,-11.68 -173.1,-36.81 -209.74,70.16 -2.82,8.24 -5.41,15.79 -7.83,22.77 25.7,-1.15 55.63,-4.56 83.64,-12.62l0 0c-22.68,15.18 -52.57,26.75 -91.21,33.95 -6.13,16.71 -11.38,29.23 -17.16,39.57 -11.13,19.91 13.84,47.29 26.47,61.2 -15.98,-10.99 -47.78,-32.35 -66.81,-18.13 -11.4,8.52 -25.64,18.18 -44.07,30.9 1.84,16.7 4.54,31.48 7.13,45.26 4.32,23.02 13.29,41.64 39.67,45.59 -29.32,3.3 -30.65,23.17 -34.65,43.37 -3.5,17.66 -10.66,37.02 -23.44,59.93 -0.2,0.36 -0.4,0.72 -0.61,1.07 6.64,9.97 12.88,20.6 18.17,32.11 3.43,7.48 6.14,15.08 8.24,22.78 5.84,21.4 27.88,25.48 63.01,28.89 -18.67,2.5 -56.13,7.17 -56.66,30.87 -0.51,22.66 -3.43,45.01 -5.78,65.84 19.94,9.11 36.11,16.78 49.43,24.18 23.75,13.19 54.79,-13.53 71.97,-28.52 -13.39,18.63 -35.69,50.03 -22.14,72.85 7.47,12.58 13.16,27.94 18.81,48.25 20.28,0.77 41.97,2.96 65.03,10.82 23.08,7.87 43.74,-19.52 56.08,-36.16 -7.16,16.57 -22.24,50.39 -4.11,63.66 6.68,4.89 13.45,10.41 20.32,16.63 12.1,10.97 22.93,21.91 32.95,32.13 15.67,-6.87 29.09,-12.12 41.32,-15.76 25.02,-7.43 29.97,-17.81 38.21,-43.77 6.85,21.55 12.94,36.71 34.94,42.83 13.11,3.64 27.51,9.21 44.6,16.7 10.02,-10.22 20.85,-21.16 32.95,-32.13 6.87,-6.23 13.64,-11.75 20.32,-16.63 18.13,-13.27 3.04,-47.09 -4.12,-63.66 12.34,16.64 33.01,44.03 56.09,36.16 23.05,-7.87 44.75,-10.05 65.03,-10.82 5.64,-20.31 11.34,-35.67 18.81,-48.25 13.56,-22.82 -8.75,-54.22 -22.14,-72.85 17.18,14.99 48.22,41.71 71.97,28.52 13.32,-7.4 29.49,-15.07 49.42,-24.18 -2.35,-20.83 -5.28,-43.18 -5.78,-65.84 -0.53,-23.7 -37.99,-28.37 -56.66,-30.87 35.13,-3.41 57.17,-7.49 63.01,-28.89 2.1,-7.7 4.81,-15.31 8.24,-22.78 5.29,-11.51 11.53,-22.15 18.17,-32.11 -0.2,-0.36 -0.4,-0.71 -0.6,-1.07 -13.23,-23.72 -20.44,-43.63 -23.79,-61.81 -3.66,-19.76 -6.45,-38.35 -34.3,-41.49 24.17,-3.61 34.99,-20.68 39.11,-42.61 2.76,-14.62 5.71,-30.34 7.7,-48.24 -48.34,-33.34 -51.51,-53.61 -110.88,-12.77 12.64,-13.91 37.6,-41.28 26.47,-61.2 -6.97,-12.47 -12.24,-26.18 -17.16,-39.57zm26.57 3.43c49.34,7.94 72.63,26.35 76.38,71.81l-0.23 -0.13c-37.63,-22.2 -55.93,-29.88 -76.15,-71.68zm-677.88 544.54c2.33,18.04 9.15,32.75 24.44,42.55 11.73,7.51 24.39,11.15 37.95,12.98 -0.65,-1.56 -1.31,-3.1 -2.02,-4.59 -11.47,-24.46 -34.22,-38.8 -60.37,-50.94zm-47 -409.8c-63.5,51.67 -42.98,85.24 -10.12,127.57 23.76,-45.89 14.98,-83.68 10.12,-127.57zm32.56 -62.93c46.66,-27.05 58.34,-34.5 76.38,-71.81 -41.14,6.62 -72.56,20.61 -76.38,71.81zm-36.52 387.18c6.15,-56.4 8,-71.47 -7.11,-99.96 -26.3,41.77 -38.66,69.69 7.11,99.96zm286.89 255.59c-43.37,-43.14 -51.16,-49.73 -101.85,-54.3 18.24,79.22 48.3,77.57 101.85,54.3zm503.89 -170.04c-2.33,18.04 -9.15,32.75 -24.45,42.55 -11.72,7.51 -24.38,11.15 -37.94,12.98 0.65,-1.56 1.31,-3.1 2.01,-4.59 11.47,-24.46 34.22,-38.8 60.38,-50.94zm47 -409.8c63.5,51.67 42.98,85.24 10.12,127.57 -23.77,-45.89 -14.98,-83.68 -10.12,-127.57zm3.95 324.25c-6.15,-56.4 -7.99,-71.47 7.11,-99.96 26.3,41.77 38.66,69.69 -7.11,99.96zm-286.89 255.59c43.38,-43.14 51.17,-49.73 101.85,-54.3 -18.24,79.22 -48.3,77.57 -101.85,54.3z"/>
 </g>
</svg>
