<?xml version="1.0" encoding="UTF-8"?>
<!DOCTYPE svg PUBLIC "-//W3C//DTD SVG 1.1//EN" "http://www.w3.org/Graphics/SVG/1.1/DTD/svg11.dtd">
<!-- Creator: CorelDRAW 2021 (64 Bit) -->
<svg xmlns="http://www.w3.org/2000/svg" xml:space="preserve" width="1234px" height="392px" version="1.1" style="shape-rendering:geometricPrecision; text-rendering:geometricPrecision; image-rendering:optimizeQuality; fill-rule:evenodd; clip-rule:evenodd"
viewBox="0 0 3537.21 1124.1"
 xmlns:xlink="http://www.w3.org/1999/xlink"
 xmlns:xodm="http://www.corel.com/coreldraw/odm/2003">
 <defs>
  <style type="text/css">
   <![CDATA[
    .fil5 {fill:#6B1315}
    .fil2 {fill:#DDA217}
    .fil3 {fill:#E6E7E8}
    .fil4 {fill:#F12824}
    .fil0 {fill:#F9C517}
    .fil1 {fill:#6B1315;fill-rule:nonzero}
   ]]>
  </style>
 </defs>
 <g id="Camada_x0020_1">
  <metadata id="CorelCorpID_0Corel-Layer"/>
  <path class="fil0" d="M1357.24 546.7l959.09 0c5.37,0 9.76,4.4 9.76,9.76l0 0c0,5.37 -4.39,9.76 -9.76,9.76l-959.09 0c-5.37,0 -9.76,-4.39 -9.76,-9.76l0 0c0,-5.36 4.39,-9.76 9.76,-9.76zm1211.12 0l959.09 0c5.37,0 9.76,4.4 9.76,9.76l0 0c0,5.37 -4.39,9.76 -9.76,9.76l-959.09 0c-5.37,0 -9.76,-4.39 -9.76,-9.76l0 0c0,-5.36 4.39,-9.76 9.76,-9.76zm-126.02 -64.37c-20.4,0 -33.99,7.26 -34.12,12.38 -0.3,11.51 2.83,25.7 0,34.55 -1.41,4.42 -2.62,7.18 -10.75,8.14 -7.52,0.89 -15,2.12 -22.49,3.26 -6.09,0.92 -7.93,10.43 -7.49,17.6 1.08,16.29 6.08,30.96 14.01,34.21 5.65,0.55 11.27,1.63 16.94,1.63 6.33,0 12.04,3.45 14.02,9.13 2.03,5.84 3.62,11.83 5.87,17.6 2.96,7.61 13.03,9.12 24.01,9.77 10.99,-0.65 21.05,-2.16 24.02,-9.77 2.25,-5.77 3.83,-11.76 5.87,-17.6 1.98,-5.68 7.68,-9.13 14.01,-9.13 5.68,0 11.3,-1.08 16.95,-1.63 7.92,-3.25 12.92,-17.92 14.01,-34.21 0.43,-7.17 -1.4,-16.68 -7.5,-17.6 -7.48,-1.14 -14.96,-2.37 -22.48,-3.26 -8.13,-0.96 -9.35,-3.72 -10.75,-8.14 -2.83,-8.85 0.29,-23.04 0,-34.55 -0.14,-5.12 -13.73,-12.38 -34.13,-12.38zm0 72.02c-9.13,-1.96 -17.23,-13.97 -28.25,-5.87 -8.99,6.61 -11.3,23.79 28.25,43.02 39.55,-19.23 37.24,-36.41 28.26,-43.02 -11.02,-8.1 -19.12,3.91 -28.26,5.87z"/>
  <path class="fil1" d="M1398.89 257.91c-12.34,-11.44 -15.8,-25.94 -15.8,-36.13 0,-23.91 19.33,-45.08 48.21,-45.08 24.43,0 44.23,15.29 44.09,40.38l3.79 0 0 -43.44 0 -4.65 -15.55 0c-10.38,-2.28 -23.32,-4.04 -33.57,-4.04 -44.69,0 -68.93,33.18 -68.93,66.24 0,15.16 5.42,34.1 21.23,48.6l75.13 69.71c9.8,9.08 15.35,21.23 15.35,36.51 0,31.36 -23.9,50.96 -52.52,52.53 -34.89,1.96 -60.43,-23.91 -56.51,-64.28l-3.46 0c-5.95,17.57 -7.45,42.52 -4.51,54.61 15.42,15.94 47.17,21.43 66.38,21.43 45.07,0 73.36,-29.92 73.36,-73.3 0,-15.81 -3.98,-33.32 -19.67,-47.75l-77.02 -71.34zm327.88 123.6l-3.91 0c-12.09,29.85 -28.03,51.28 -69.58,51.28l-56.24 0 0 -117.39 66.69 0c10.26,0.39 18.56,8.88 18.56,19.27l0 5.81 3.79 0 0 -61.99 -3.79 0 0 5.81c0,10.52 -8.5,19.07 -19.01,19.27l-66.24 0 0 -121.18 79.96 0c12.21,0.78 21.95,10.91 21.95,23.39l0 6.99 3.92 0 0 -31.43 0 -6.59 0 -11.44c-7.25,3.07 -29.79,6.93 -46.71,7.12l-114.52 0 0 3.92 4.96 0c13,0 23.65,9.8 25.02,22.41l0 219.5c-0.26,13.65 -11.43,24.63 -25.15,24.63l-4.96 0 -0.07 3.92 162.54 0 22.79 -63.3zm311.16 -216.43l-3.52 0 -106.95 236.35 -109.42 -236.48 -3.59 0 -29.53 251.38c-2.03,15.48 -14.57,24.56 -28.55,24.56l-6.27 0 0 3.92 75.91 0 0 -3.72 -6.08 0c-8.42,0 -16.07,-8.3 -15.28,-16.73l17.18 -191.54 100.28 217.48 3.65 0c2.55,-16.2 13.46,-40.05 13.46,-40.05l82.38 -183.11 17.77 197.22c0.78,8.43 -6.86,16.73 -15.29,16.73l-6.07 0 0 3.72 85.19 0 0 -3.92 -6.21 0c-14.05,0 -26.59,-9.08 -28.61,-24.56l-30.45 -251.25zm180.31 275.81l-4.97 0c-13.72,0 -24.89,-10.98 -25.08,-24.63l0 -217.54c0.32,-13.52 11.43,-24.43 25.08,-24.43l4.97 0 0.06 -3.92 -85.77 0 0.06 3.92 4.97 0c13.65,0 24.76,10.91 25.08,24.49l0 217.48c-0.26,13.65 -11.36,24.63 -25.08,24.63l-4.97 0 -0.06 3.92 85.77 0 -0.06 -3.92zm254.58 -270.46l0.06 3.92 7.26 0c13.19,0 23.97,10.59 24.17,23.78l0 194.35 -213.43 -227.93 -3.85 0c0,0 3.59,22.21 3.59,49l0 203.63c-0.26,13.13 -10.98,23.71 -24.17,23.71l-7.25 0 -0.07 3.92 80.75 0 -0.07 -3.92 -7.25 0c-13.13,0 -23.78,-10.39 -24.17,-23.45l0 -195.14 213.75 228 3.6 0c0,0 -3.6,-24.76 -3.6,-49.98l0 -202.51c0.39,-13.07 11.04,-23.46 24.17,-23.46l7.26 0 0.06 -3.92 -80.81 0zm232.24 -25.08c20.97,-10.32 42.01,-21.1 63.04,-33.45 -4.18,-7.64 -9.93,-14.51 -16.07,-20.58 -16.59,15.94 -33.12,33.38 -49.71,51.28l2.74 2.75zm1.11 19.6l-3.59 0c0,8.62 -14.5,40.37 -14.5,40.37l-88.85 210.94c-7.97,17.38 -22.47,24.63 -34.36,24.63l-3.53 0 0 3.92 78.92 0 0 -3.92 -3.47 0c-10.06,0 -20.51,-8.82 -14.96,-24.37l26.2 -66.96 105.64 0 25.01 66.77c5.76,15.68 -4.76,24.56 -14.89,24.56l-3.4 0 0 3.92 88.26 0 0 -3.92 -3.26 0c-12.03,0 -26.53,-7.25 -34.5,-24.69l-104.72 -251.25zm-53.5 172.85l49.32 -125.82 47.23 125.82 -96.55 0zm215.19 -167.37l0.07 3.92 4.96 0c13.72,0 24.82,10.98 25.09,24.63l0 217.48c-0.33,13.52 -11.44,24.43 -25.09,24.43l-4.96 0 -0.07 3.92 85.64 0 -0.06 -3.92 -4.97 0c-13.71,0 -24.82,-10.98 -25.08,-24.63l0 -233.61c5.09,0.19 28.81,-0.79 48.8,0.33 29.13,1.56 47.62,24.3 48.6,59.71 0.26,8.62 -0.78,17.96 -2.48,23.45 -11.11,35.34 -40.83,40.18 -61.21,40.7 -11.76,0.32 -20.71,0.13 -20.71,0.13l0 3.66c14.37,0 25.8,13.58 35.99,26.46 3.07,3.78 47.24,68 51.68,73.36 12.28,14.7 31.88,34.36 68.4,34.36l21.49 0 0 -3.92c-23.06,-0.2 -37.56,-12.41 -53.31,-29.66 -15.15,-16.59 -48.99,-64.8 -48.99,-64.8 -7.58,-10.72 -19.6,-23.72 -28.03,-27.57 37.69,0 66.57,-36.85 66.57,-74.74 0,-45.73 -29.07,-73.69 -76.63,-73.69l-105.7 0zm339.31 270.46l-4.96 0c-13.72,0 -24.89,-10.98 -25.09,-24.63l0 -217.54c0.33,-13.52 11.43,-24.43 25.09,-24.43l4.96 0 0.07 -3.92 -85.78 0 0.07 3.92 4.96 0c13.65,0 24.76,10.91 25.09,24.49l0 217.48c-0.26,13.65 -11.37,24.63 -25.09,24.63l-4.96 0 -0.07 3.92 85.78 0 -0.07 -3.92zm183.77 -275.94c-83.36,0 -140.92,57.09 -140.92,142.67 0,85.58 57.56,142.68 140.92,142.68 83.36,0 140.85,-57.1 140.85,-142.68 0,-85.58 -57.49,-142.67 -140.85,-142.67zm0 273.59c-66.51,0 -110.86,-52.33 -110.86,-130.92 0,-78.59 44.35,-130.92 110.86,-130.92 66.5,0 110.79,52.33 110.79,130.92 0,78.59 -44.29,130.92 -110.79,130.92z"/>
  <path class="fil1" d="M1357.37 699.65l0.03 1.85 2.35 0c6.15,0 11.22,4.67 11.8,10.66l0 103.73c-0.12,6.46 -5.37,11.64 -11.86,11.64l-2.35 0 -0.03 1.86 40.56 0 -0.03 -1.86 -2.32 0c-6.48,0 -11.77,-5.18 -11.89,-11.64l0 -110.68 21.38 0c15.75,0 24.52,11.33 24.99,28.39 0.09,4.07 -0.37,8.55 -1.21,11.18 -8.34,26.54 -38.83,19.96 -38.83,19.96l0 1.76c23.26,12.23 53.94,-2.81 53.94,-31.05 0,-22.18 -14.52,-35.8 -38.21,-35.8l-48.32 0zm206.99 -2.6l-1.67 0c0,4.08 -6.86,19.09 -6.86,19.09l-42.01 99.75c-3.77,8.25 -10.62,11.64 -16.25,11.64l-1.67 0 0 1.86 37.32 0 0 -1.82 -1.63 0c-4.76,0 -9.7,-4.17 -7.08,-11.53l12.39 -31.69 49.95 0 11.83 31.57c2.72,7.41 -2.25,11.65 -7.04,11.65l-1.61 0 0 1.82 41.73 0 0 -1.86 -1.57 0c-5.65,0 -12.51,-3.39 -16.28,-11.64l-49.55 -118.84zm-25.27 81.74l23.32 -59.49 22.34 59.49 -45.66 0zm159.42 -79.14l0.03 1.85 2.35 0c6.11,0 11.8,4.64 11.8,10.6l0 103.82c-0.13,6.43 -5.38,11.61 -11.87,11.61l-2.34 0 -0.03 1.86 62.74 0c39.6,0 66.57,-25.92 66.57,-64.81 0,-38.95 -26.97,-64.9 -66.57,-64.9l-62.68 -0.03zm26.26 5.59l36.42 0c31.6,0 52.67,23.75 52.67,59.34 0,35.53 -20.89,59.19 -52.67,59.19l-36.42 0 0 -118.53zm177.15 -5.59l0.03 1.85 2.34 0c6.49,0 11.74,5.19 11.87,11.65l0 102.83c-0.16,6.4 -5.41,11.55 -11.87,11.55l-2.34 0 -0.03 1.86 40.49 0 -0.03 -1.86 -2.35 0c-6.48,0 -11.73,-5.18 -11.86,-11.64l0 -110.46c2.41,0.09 13.62,-0.38 23.08,0.15 13.77,0.74 22.52,11.49 22.98,28.23 0.13,4.08 -0.37,8.5 -1.17,11.09 -5.25,16.71 -19.31,19 -28.95,19.25 -5.56,0.15 -9.79,0.06 -9.79,0.06l0 1.73c6.79,0 12.2,6.42 17.02,12.51 1.45,1.79 22.33,32.16 24.43,34.69 5.81,6.95 15.08,16.25 32.35,16.25l10.16 0 0 -1.86c-10.9,-0.09 -17.76,-5.86 -25.21,-14.02 -7.16,-7.84 -23.17,-30.64 -23.17,-30.64 -3.58,-5.07 -9.26,-11.22 -13.25,-13.04 17.83,0 31.48,-17.42 31.48,-35.34 0,-21.62 -13.74,-34.84 -36.23,-34.84l-49.98 0zm265.15 99.81l-1.85 0c-5.71,14.11 -13.25,24.25 -32.9,24.25l-26.6 0 0 -55.52 31.54 0c4.85,0.19 8.78,4.2 8.78,9.12l0 2.75 1.79 0 0 -29.32 -1.79 0 0 2.75c0,4.97 -4.02,9.02 -8.99,9.11l-31.33 0 0 -57.3 37.81 0c5.78,0.37 10.38,5.16 10.38,11.06l0 3.3 1.86 0 0 -14.85 0 -3.12 0 -5.41c-3.43,1.45 -14.09,3.28 -22.09,3.37l-54.15 0 0 1.85 2.35 0c6.14,0 11.18,4.64 11.83,10.6l0 103.79c-0.13,6.46 -5.41,11.64 -11.9,11.64l-2.34 0 -0.03 1.86 76.85 0 10.78 -29.93zm187.97 -99.81l0.03 1.85 2.35 0c6.11,0 11.79,4.64 11.79,10.6l0 103.82c-0.12,6.43 -5.37,11.61 -11.86,11.61l-2.34 0 -0.04 1.86 62.74 0c39.6,0 66.57,-25.92 66.57,-64.81 0,-38.95 -26.97,-64.9 -66.57,-64.9l-62.67 -0.03zm26.25 5.59l36.42 0c31.6,0 52.67,23.75 52.67,59.34 0,35.53 -20.88,59.19 -52.67,59.19l-36.42 0 0 -118.53zm217.68 122.29l-2.35 0c-6.48,0 -11.77,-5.18 -11.86,-11.64l0 -102.87c0.15,-6.39 5.41,-11.55 11.86,-11.55l2.35 0 0.03 -1.85 -40.56 0 0.03 1.85 2.35 0c6.46,0 11.71,5.16 11.86,11.58l0 102.84c-0.12,6.46 -5.37,11.64 -11.86,11.64l-2.35 0 -0.03 1.86 40.56 0 -0.03 -1.86zm177.99 -127.88l0.03 1.85 3.42 0c6.24,0 11.34,5 11.43,11.25l0 91.9 -100.92 -107.78 -1.82 0c0,0 1.7,10.5 1.7,23.17l0 96.28c-0.12,6.21 -5.19,11.21 -11.43,11.21l-3.43 0 -0.03 1.86 38.18 0 -0.03 -1.86 -3.43 0c-6.21,0 -11.25,-4.91 -11.43,-11.08l0 -92.27 101.08 107.81 1.69 0c0,0 -1.69,-11.71 -1.69,-23.64l0 -95.76c0.18,-6.18 5.22,-11.09 11.43,-11.09l3.42 0 0.04 -1.85 -38.21 0zm243.77 69.44l0 -1.85 -36.29 0 0 1.85 2.93 0c6,0 9.52,3.03 9.52,8.43l0 32.87c-10.69,9.86 -25.7,16.07 -41.8,16.07 -31.41,-0.16 -52.73,-24.93 -52.73,-61.94 0,-37.13 21.32,-61.91 52.73,-61.91 24.47,0 41.43,11.93 47.05,33.15l1.54 0 -3.73 -26.2c-10.88,-7.01 -24.53,-12.51 -44.92,-12.51 -39.36,0 -66.57,27 -66.57,67.47 0,40.34 27.21,67.28 66.63,67.47 27.83,0 45.13,-12.64 53.6,-23.88l0 -30.65c-0.1,-5.34 3.27,-8.37 9.27,-8.37l2.77 0zm154.38 30.37c-5.71,14.11 -13.25,24.25 -32.9,24.25l-26.56 0 0 -110.53c0.09,-6.46 5.38,-11.68 11.86,-11.68l2.35 0 0.03 -1.85 -40.56 0 0.03 1.85 2.35 0c6.49,0 11.74,5.22 11.86,11.68l0 102.71c-0.12,6.46 -5.37,11.64 -11.86,11.64l-2.35 0 -0.03 1.86 76.86 0 10.78 -29.93 -1.86 0zm160.85 0l-1.86 0c-5.71,14.11 -13.25,24.25 -32.9,24.25l-26.6 0 0 -55.52 31.55 0c4.85,0.19 8.77,4.2 8.77,9.12l0 2.75 1.79 0 0 -29.32 -1.79 0 0 2.75c0,4.97 -4.02,9.02 -8.99,9.11l-31.33 0 0 -57.3 37.81 0c5.78,0.37 10.39,5.16 10.39,11.06l0 3.3 1.85 0 0 -14.85 0 -3.12 0 -5.41c-3.43,1.45 -14.09,3.28 -22.09,3.37l-54.15 0 0 1.85 2.35 0c6.15,0 11.18,4.64 11.83,10.6l0 103.79c-0.12,6.46 -5.41,11.64 -11.9,11.64l-2.34 0 -0.03 1.86 76.85 0 10.79 -29.93zm75.05 -99.81l0.03 1.85 2.35 0c6.49,0 11.73,5.19 11.86,11.65l0 102.83c-0.16,6.4 -5.41,11.55 -11.86,11.55l-2.35 0 -0.03 1.86 40.5 0 -0.03 -1.86 -2.35 0c-6.49,0 -11.74,-5.18 -11.86,-11.64l0 -110.46c2.41,0.09 13.62,-0.38 23.07,0.15 13.78,0.74 22.52,11.49 22.98,28.23 0.13,4.08 -0.36,8.5 -1.17,11.09 -5.25,16.71 -19.31,19 -28.94,19.25 -5.56,0.15 -9.8,0.06 -9.8,0.06l0 1.73c6.8,0 12.21,6.42 17.02,12.51 1.46,1.79 22.34,32.16 24.44,34.69 5.81,6.95 15.07,16.25 32.34,16.25l10.17 0 0 -1.86c-10.91,-0.09 -17.77,-5.86 -25.21,-14.02 -7.17,-7.84 -23.17,-30.64 -23.17,-30.64 -3.58,-5.07 -9.27,-11.22 -13.25,-13.04 17.82,0 31.48,-17.42 31.48,-35.34 0,-21.62 -13.75,-34.84 -36.24,-34.84l-49.98 0z"/>
  <path class="fil1" d="M1693.87 1011.22c-3.79,9.36 -8.78,16.08 -21.81,16.08l-17.61 0 0 -73.27c0.07,-4.28 3.57,-7.74 7.87,-7.74l1.55 0 0.02 -1.23 -26.88 0 0.02 1.23 1.56 0c4.3,0 7.78,3.46 7.86,7.74l0 68.08c-0.08,4.29 -3.56,7.73 -7.86,7.73l-1.56 0 -0.02 1.22 50.95 0 7.14 -19.84 -1.23 0zm70.57 -66.16l0 1.23 2 0c3.49,0 6.33,2.48 6.5,5.92l0 48.47c-0.05,16.93 -10.98,28.23 -27.38,28.23 -15.67,0 -26.09,-11.93 -26.09,-29.83l0 -46.89c0.14,-3.44 2.99,-5.9 6.47,-5.9l2.01 0 0 -1.23 -24.96 0 0 1.23 2 0c3.54,0 6.43,2.56 6.5,6.08l0 48.51c0,19.15 13.63,31.9 34.07,31.9 19.86,0 33.11,-12.84 33.11,-32.1l0 -48.59c0.23,-3.38 3.03,-5.8 6.49,-5.8l2.01 0 0 -1.23 -22.73 0zm113.26 50.15c-2.79,25.16 -17.55,33.85 -35,33.89 -20.66,-0.49 -34.67,-16.59 -34.67,-41.28 0,-24.45 13.76,-40.8 35.36,-40.8 14.77,0 26.81,7.62 30.54,21.98l1.02 0 -2.48 -17.37c-7.18,-4.73 -17.01,-8.29 -29.06,-8.29 -27.02,0 -44.59,17.94 -44.59,44.6 0,27.15 18.18,44.72 43.88,44.84 17.06,0 28.05,-7.72 34.52,-18.28l1.5 -19.29 -1.02 0zm51.27 -51.87l-1.11 0c0,2.7 -4.54,12.65 -4.54,12.65l-27.85 66.12c-2.5,5.47 -7.05,7.73 -10.77,7.73l-1.11 0 0 1.22 24.74 0 0 -1.2 -1.09 0c-3.15,0 -6.43,-2.77 -4.69,-7.64l8.21 -21.01 33.12 0 7.84 20.92c1.8,4.92 -1.5,7.73 -4.67,7.73l-1.07 0 0 1.2 27.67 0 0 -1.22 -1.04 0c-3.75,0 -8.3,-2.26 -10.8,-7.73l-32.84 -78.77zm-16.75 54.18l15.46 -39.44 14.8 39.44 -30.26 0zm81.13 -25.04c-3.87,-3.58 -4.96,-8.13 -4.96,-11.32 0,-7.5 6.06,-14.14 15.11,-14.14 7.66,0 13.87,4.8 13.83,12.66l1.18 0 0 -13.62 0 -1.45 -4.87 0c-3.25,-0.72 -7.31,-1.27 -10.52,-1.27 -14.01,0 -21.61,10.4 -21.61,20.76 0,4.76 1.7,10.69 6.66,15.24l23.55 21.85c3.07,2.84 4.81,6.65 4.81,11.44 0,9.83 -7.5,15.98 -16.46,16.47 -10.94,0.61 -18.95,-7.5 -17.72,-20.15l-1.08 0c-1.87,5.51 -2.34,13.33 -1.42,17.12 4.84,4.99 14.79,6.71 20.81,6.71 14.13,0 22.99,-9.38 22.99,-22.97 0,-4.96 -1.25,-10.44 -6.16,-14.97l-24.14 -22.36zm75.44 -27.42l0.02 1.23 1.55 0c4.06,0 7.82,3.07 7.82,7.02l0 68.82c-0.08,4.27 -3.56,7.71 -7.86,7.71l-1.56 0 -0.02 1.22 41.59 0c26.25,0 44.13,-17.18 44.13,-42.96 0,-25.82 -17.88,-43.02 -44.13,-43.02l-41.54 -0.02zm17.4 3.71l24.14 0c20.95,0 34.92,15.74 34.92,39.33 0,23.55 -13.85,39.24 -34.92,39.24l-24.14 0 0 -78.57zm127.1 -5.43c-26.13,0 -44.17,17.9 -44.17,44.72 0,26.83 18.04,44.72 44.17,44.72 26.13,0 44.15,-17.89 44.15,-44.72 0,-26.82 -18.02,-44.72 -44.15,-44.72zm0 85.76c-20.85,0 -34.75,-16.41 -34.75,-41.04 0,-24.63 13.9,-41.04 34.75,-41.04 20.84,0 34.73,16.41 34.73,41.04 0,24.63 -13.89,41.04 -34.73,41.04zm88.28 -84.04l0.02 1.23 1.55 0c4.3,0 7.79,3.44 7.87,7.72l0 68.17c-0.1,4.24 -3.59,7.66 -7.87,7.66l-1.55 0 -0.02 1.22 26.84 0 -0.02 -1.22 -1.56 0c-4.29,0 -7.78,-3.44 -7.86,-7.73l0 -73.22c1.6,0.06 9.03,-0.25 15.3,0.1 9.13,0.49 14.93,7.62 15.24,18.72 0.08,2.7 -0.25,5.63 -0.78,7.35 -3.49,11.08 -12.8,12.59 -19.19,12.76 -3.69,0.1 -6.49,0.04 -6.49,0.04l0 1.15c4.5,0 8.09,4.25 11.28,8.29 0.96,1.19 14.81,21.31 16.2,22.99 3.85,4.61 9.99,10.77 21.44,10.77l6.73 0 0 -1.22c-7.22,-0.07 -11.77,-3.89 -16.71,-9.3 -4.75,-5.2 -15.35,-20.31 -15.35,-20.31 -2.38,-3.36 -6.14,-7.44 -8.79,-8.65 11.82,0 20.87,-11.54 20.87,-23.42 0,-14.34 -9.11,-23.1 -24.02,-23.1l-33.13 0zm106.35 84.78l-1.55 0c-4.3,0 -7.8,-3.44 -7.87,-7.73l0 -68.18c0.11,-4.24 3.59,-7.66 7.87,-7.66l1.55 0 0.02 -1.23 -26.88 0 0.02 1.23 1.55 0c4.28,0 7.77,3.42 7.87,7.68l0 68.16c-0.08,4.29 -3.57,7.73 -7.87,7.73l-1.55 0 -0.02 1.22 26.88 0 -0.02 -1.22zm57.6 -86.5c-26.12,0 -44.16,17.9 -44.16,44.72 0,26.83 18.04,44.72 44.16,44.72 26.13,0 44.15,-17.89 44.15,-44.72 0,-26.82 -18.02,-44.72 -44.15,-44.72zm0 85.76c-20.84,0 -34.74,-16.41 -34.74,-41.04 0,-24.63 13.9,-41.04 34.74,-41.04 20.85,0 34.73,16.41 34.73,41.04 0,24.63 -13.88,41.04 -34.73,41.04zm148.34 -84.06l0 1.23 1.09 0c3.17,0 6.46,2.76 4.66,7.68l-26.72 64.36 -25.74 -64.36c-1.8,-4.92 1.46,-7.68 4.63,-7.68l1.08 0 0 -1.23 -27.66 0 0 1.25 0.98 0c3.81,0 8.36,2.23 10.84,7.7l34.52 78.79 1.13 0c0,-2.7 4.54,-12.65 4.54,-12.65l29.53 -66.24c2.5,-5.41 7.03,-7.6 10.77,-7.6l1.09 0 0 -1.25 -24.74 0zm88.95 66.18l-1.23 0c-3.79,9.36 -8.78,16.08 -21.81,16.08l-17.63 0 0 -36.8 20.91 0c3.22,0.12 5.82,2.78 5.82,6.04l0 1.82 1.18 0 0 -19.43 -1.18 0 0 1.82c0,3.3 -2.67,5.98 -5.96,6.04l-20.77 0 0 -37.98 25.07 0c3.83,0.24 6.88,3.42 6.88,7.33l0 2.19 1.23 0 0 -9.85 0 -2.07 0 -3.58c-2.27,0.96 -9.34,2.17 -14.65,2.23l-35.89 0 0 1.23 1.56 0c4.07,0 7.41,3.07 7.84,7.02l0 68.8c-0.08,4.29 -3.59,7.73 -7.88,7.73l-1.56 0 -0.02 1.22 50.94 0 7.15 -19.84zm11.57 -66.16l0.02 1.23 1.56 0c4.3,0 7.78,3.44 7.86,7.72l0 68.17c-0.1,4.24 -3.58,7.66 -7.86,7.66l-1.56 0 -0.02 1.22 26.85 0 -0.02 -1.22 -1.56 0c-4.3,0 -7.78,-3.44 -7.86,-7.73l0 -73.22c1.59,0.06 9.03,-0.25 15.3,0.1 9.13,0.49 14.92,7.62 15.23,18.72 0.08,2.7 -0.25,5.63 -0.78,7.35 -3.48,11.08 -12.8,12.59 -19.19,12.76 -3.68,0.1 -6.49,0.04 -6.49,0.04l0 1.15c4.51,0 8.09,4.25 11.29,8.29 0.96,1.19 14.8,21.31 16.19,22.99 3.85,4.61 9.99,10.77 21.44,10.77l6.74 0 0 -1.22c-7.23,-0.07 -11.78,-3.89 -16.71,-9.3 -4.75,-5.2 -15.36,-20.31 -15.36,-20.31 -2.37,-3.36 -6.14,-7.44 -8.78,-8.65 11.81,0 20.86,-11.54 20.86,-23.42 0,-14.34 -9.11,-23.1 -24.01,-23.1l-33.14 0zm79.53 0l0.02 1.23 1.56 0c4.05,0 7.82,3.07 7.82,7.02l0 68.82c-0.08,4.27 -3.56,7.71 -7.86,7.71l-1.56 0 -0.02 1.22 41.59 0c26.25,0 44.13,-17.18 44.13,-42.96 0,-25.82 -17.88,-43.02 -44.13,-43.02l-41.55 -0.02zm17.41 3.71l24.14 0c20.95,0 34.91,15.74 34.91,39.33 0,23.55 -13.84,39.24 -34.91,39.24l-24.14 0 0 -78.57zm137.33 62.45l-1.22 0c-3.79,9.36 -8.79,16.08 -21.81,16.08l-17.63 0 0 -36.8 20.9 0c3.22,0.12 5.82,2.78 5.82,6.04l0 1.82 1.19 0 0 -19.43 -1.19 0 0 1.82c0,3.3 -2.66,5.98 -5.96,6.04l-20.76 0 0 -37.98 25.06 0c3.83,0.24 6.88,3.42 6.88,7.33l0 2.19 1.23 0 0 -9.85 0 -2.07 0 -3.58c-2.27,0.96 -9.34,2.17 -14.64,2.23l-35.9 0 0 1.23 1.56 0c4.08,0 7.41,3.07 7.84,7.02l0 68.8c-0.08,4.29 -3.58,7.73 -7.88,7.73l-1.56 0 -0.02 1.22 50.95 0 7.14 -19.84zm40.33 -15.97l0.73 2.77 36.86 0 0.74 -2.77 -0.74 -2.77 -36.86 0 -0.73 2.77zm165.33 -51.87l-1.11 0 -33.52 74.09 -34.3 -74.13 -1.12 0 -9.26 78.79c-0.63,4.86 -4.56,7.71 -8.95,7.71l-1.96 0 0 1.22 23.79 0 0 -1.16 -1.9 0c-2.65,0 -5.04,-2.6 -4.79,-5.25l5.38 -60.03 31.43 68.16 1.15 0c0.8,-5.07 4.22,-12.55 4.22,-12.55l25.82 -57.4 5.57 61.82c0.25,2.65 -2.15,5.25 -4.79,5.25l-1.91 0 0 1.16 26.71 0 0 -1.22 -1.95 0c-4.4,0 -8.33,-2.85 -8.97,-7.71l-9.54 -78.75zm37.08 1.56c-5.32,-0.02 -12.51,-1.27 -14.8,-2.23l0 15.44 1.23 -0.03 0 -2.19c0,-3.93 3.11,-7.14 7.02,-7.31l23.3 0 0 73.7c-0.18,4.18 -3.64,7.52 -7.86,7.52l-1.56 0 -0.02 1.22 26.89 0 -0.02 -1.22 -1.56 0c-4.26,0 -7.72,-3.38 -7.86,-7.62l0 -73.6 23.28 0c3.91,0.17 7,3.38 7,7.31l0 2.19 1.25 0.03 0 -15.44c-2.31,0.96 -9.48,2.21 -14.8,2.23l-41.49 0z"/>
  <path class="fil2" d="M562.05 0c310.41,0 562.05,251.64 562.05,562.05 0,310.41 -251.64,562.05 -562.05,562.05 -310.41,0 -562.05,-251.64 -562.05,-562.05 0,-310.41 251.64,-562.05 562.05,-562.05z"/>
  <path class="fil3" d="M585.66 36.37c271.84,12 490.06,230.23 502.07,502.07l-60.07 0c-12.99,0 -23.61,10.62 -23.61,23.61l0 0c0,12.99 10.62,23.61 23.61,23.61l60.07 0c-12.01,271.84 -230.23,490.06 -502.07,502.07l0 -60.07c0,-12.99 -10.62,-23.61 -23.61,-23.61l0 0c-12.99,0 -23.61,10.62 -23.61,23.61l0 60.07c-271.84,-12.01 -490.07,-230.23 -502.07,-502.07l60.07 0c12.99,0 23.61,-10.62 23.61,-23.61l0 0c0,-12.99 -10.62,-23.61 -23.61,-23.61l-60.07 0c12,-271.84 230.23,-490.07 502.07,-502.07l0 60.07c0,12.99 10.62,23.61 23.61,23.61l0 0c12.99,0 23.61,-10.62 23.61,-23.61l0 -60.07z"/>
  <path class="fil2" d="M565.16 163.46c5.21,141.09 190.62,158.28 7.82,280.45l0 -61.37 38.87 0c6.01,0 10.93,-4.92 10.93,-10.93l0 0c0,-6.02 -4.92,-10.93 -10.93,-10.93l-38.87 0 0 -38.26c0,-6.01 -4.92,-10.93 -10.93,-10.93l0 0c-6.01,0 -10.93,4.92 -10.93,10.93l0 38.26 -38.87 0c-6.01,0 -10.93,4.91 -10.93,10.93l0 0c0,6.01 4.92,10.93 10.93,10.93l38.87 0 0 61.97c-175.96,-108.53 0.48,-171.22 14.04,-281.05z"/>
  <path class="fil4" d="M562.05 758.49c0.48,-0.28 -98.95,-49.53 -166.91,-127.97 -135.84,-156.79 -68.76,-317.85 155.98,-162.18l0 26.75c0,6.01 4.92,10.93 10.93,10.93l0 0c6.01,0 10.93,-4.92 10.93,-10.93l0 -26.75c224.74,-155.67 291.82,5.39 155.98,162.18 -67.96,78.44 -167.39,127.69 -166.91,127.97z"/>
  <path class="fil5" d="M534.96 858.24c20.88,-7.17 33.3,-7.17 54.17,0 -18.53,13.11 -35.63,13.11 -54.17,0zm243.31 -564.13c-29.69,-5.53 -52.67,-14.42 -70.09,-26.08l0 0c21.52,6.19 44.51,8.81 64.27,9.69 -1.86,-5.35 -3.85,-11.16 -6.02,-17.49 -28.16,-82.19 -95.53,-62.88 -161.17,-53.91 34.94,-7.47 77.73,-19.56 111.61,-11.91 17.47,3.95 25.79,5.84 41.41,-7.51 -10.29,14.02 -6.6,23.88 2.71,35.22 7.08,8.62 13.54,19.46 19.33,32.94 3.85,8.99 7.18,16.78 10.17,23.63 18.46,1.32 38.29,3.69 55.04,12.09 24.47,12.3 44.57,3.27 69.16,-9.39 -14.6,12.44 -35.98,31.48 -34.46,52.38 0.01,0.1 0.02,0.22 0.03,0.32 1.37,14.32 3.7,19.87 3.91,33.5 20.49,15.65 34.93,30.09 44.75,43.5 16.44,22.44 54.27,18.46 78.87,15.54 -25.05,9.1 -56.26,21.41 -62.73,48.98 -4.14,17.64 -14.36,33.03 -23.18,47.04 -2.68,4.26 -5.19,8.2 -7.54,11.9 18.39,25.44 37.52,53.18 37.29,83 -0.15,19.6 26.71,31.36 42.23,38.51 -19.66,-4.01 -46.08,-9.44 -59.43,7.5 -11.78,14.93 -27.98,24.76 -45.21,32.9 0.23,22.42 -2.9,40.87 -10.06,55.71 -9.94,20.64 12.23,49.92 23.94,66.08 -13.74,-11.89 -44.26,-37.79 -63.38,-29.47 -14.17,6.17 -31.69,10.09 -52.96,11.99 -5.44,25.75 -11.21,53.04 -26.71,72.25 -16.95,21 -5.35,55.92 2.54,78.96 -14.37,-22.91 -34.65,-52.35 -64.01,-53.48 -22.87,-0.89 -44.94,-10.73 -66.39,-21.08 -11.27,9.78 -22.11,17.49 -32.68,23.04 -26.83,14.1 -34.11,59.21 -37.46,86.46 -3.35,-27.25 -10.64,-72.36 -37.46,-86.46 -10.58,-5.55 -21.41,-13.26 -32.68,-23.04 -21.46,10.35 -43.52,20.19 -66.39,21.08 -29.36,1.13 -49.64,30.57 -64.01,53.48 7.89,-23.04 19.49,-57.96 2.54,-78.96 -15.5,-19.21 -21.27,-46.5 -26.71,-72.25 -21.27,-1.9 -38.79,-5.82 -52.96,-11.99 -19.12,-8.32 -49.64,17.58 -63.38,29.47 11.71,-16.16 33.88,-45.44 23.94,-66.08 -7.16,-14.84 -10.29,-33.29 -10.07,-55.71 -17.22,-8.14 -33.43,-17.97 -45.2,-32.9 -13.35,-16.94 -39.77,-11.51 -59.43,-7.5 15.52,-7.15 42.38,-18.91 42.23,-38.51 -0.23,-29.82 18.9,-57.56 37.29,-83 -2.36,-3.7 -4.86,-7.64 -7.54,-11.9 -8.83,-14.01 -19.05,-29.4 -23.18,-47.04 -6.47,-27.57 -37.68,-39.88 -62.73,-48.98 24.59,2.92 62.42,6.9 78.87,-15.54 9.82,-13.41 24.26,-27.85 44.75,-43.5 0.11,-5.61 0.48,-11.39 1.21,-17.4 0.51,-4.26 1.2,-8.26 2.07,-12.03 5.2,-22.6 -18.19,-43.47 -33.81,-56.77 24.6,12.66 44.7,21.69 69.17,9.39 15.9,-8.01 35.23,-10.73 55.04,-12.09 2.99,-6.85 6.32,-14.64 10.17,-23.63 5.78,-13.48 12.25,-24.32 19.33,-32.94 9.31,-11.34 13,-21.2 2.7,-35.22 15.62,13.35 23.95,11.46 41.42,7.51 33.87,-7.65 76.67,4.44 111.6,11.91 -65.64,-8.97 -133,-28.28 -161.16,53.91 -2.17,6.33 -4.16,12.14 -6.02,17.49 19.76,-0.88 42.75,-3.5 64.27,-9.69l0 0c-17.43,11.66 -40.4,20.55 -70.09,26.08 -4.71,12.84 -8.74,22.46 -13.18,30.41 -8.55,15.3 10.63,36.33 20.34,47.02 -12.28,-8.45 -36.71,-24.86 -51.34,-13.93 -8.76,6.54 -19.7,13.97 -33.86,23.74 1.42,12.83 3.49,24.19 5.48,34.77 3.32,17.69 10.22,32 30.49,35.04 -22.53,2.54 -23.55,17.81 -26.63,33.32 -2.69,13.57 -8.19,28.45 -18.01,46.05 -0.15,0.28 -0.31,0.55 -0.46,0.83 5.1,7.65 9.89,15.82 13.96,24.67 2.64,5.75 4.72,11.59 6.33,17.51 4.49,16.44 21.42,19.57 48.41,22.2 -14.35,1.92 -43.13,5.51 -43.54,23.72 -0.39,17.41 -2.64,34.58 -4.44,50.58 15.32,7 27.74,12.9 37.98,18.58 18.25,10.14 42.1,-10.4 55.3,-21.92 -10.29,14.32 -27.42,38.45 -17.01,55.98 5.74,9.67 10.12,21.47 14.45,37.07 15.59,0.6 32.26,2.28 49.97,8.32 17.73,6.05 33.61,-14.99 43.09,-27.78 -5.49,12.72 -17.09,38.72 -3.16,48.91 5.14,3.76 10.34,7.99 15.61,12.78 9.3,8.43 17.63,16.84 25.33,24.69 12.03,-5.28 22.35,-9.32 31.75,-12.11 19.22,-5.7 23.02,-13.68 29.36,-33.63 5.26,16.56 9.94,28.21 26.84,32.91 10.08,2.8 21.15,7.07 34.27,12.83 7.7,-7.85 16.02,-16.26 25.32,-24.69 5.28,-4.79 10.48,-9.02 15.62,-12.78 13.93,-10.19 2.33,-36.19 -3.17,-48.91 9.49,12.79 25.37,33.83 43.1,27.78 17.71,-6.04 34.38,-7.72 49.96,-8.32 4.34,-15.6 8.72,-27.4 14.46,-37.07 10.41,-17.53 -6.72,-41.66 -17.01,-55.98 13.2,11.52 37.05,32.06 55.3,21.92 10.23,-5.68 22.66,-11.58 37.98,-18.58 -1.8,-16 -4.06,-33.17 -4.45,-50.58 -0.4,-18.21 -29.19,-21.8 -43.53,-23.72 26.99,-2.63 43.92,-5.76 48.41,-22.2 1.61,-5.92 3.69,-11.76 6.33,-17.51 4.07,-8.85 8.86,-17.02 13.96,-24.67 -0.16,-0.28 -0.31,-0.55 -0.46,-0.83 -10.17,-18.23 -15.71,-33.53 -18.29,-47.49 -2.81,-15.18 -4.95,-29.47 -26.35,-31.88 18.57,-2.78 26.88,-15.89 30.05,-32.74 2.12,-11.24 4.39,-23.31 5.91,-37.07 -37.14,-25.62 -39.58,-41.19 -85.19,-9.81 9.71,-10.69 28.89,-31.72 20.34,-47.02 -5.35,-9.58 -9.41,-20.12 -13.18,-30.41zm20.41 2.64c37.91,6.1 55.81,20.24 58.69,55.18l-0.17 -0.1c-28.91,-17.06 -42.98,-22.96 -58.52,-55.08zm-520.86 418.41c1.79,13.86 7.02,25.17 18.78,32.7 9.01,5.76 18.74,8.56 29.16,9.97 -0.5,-1.2 -1.02,-2.38 -1.55,-3.53 -8.82,-18.79 -26.29,-29.81 -46.39,-39.14zm-36.12 -314.89c-48.79,39.71 -33.03,65.51 -7.77,98.03 18.26,-35.26 11.51,-64.3 7.77,-98.03zm25.02 -48.34c35.86,-20.79 44.83,-26.51 58.69,-55.18 -31.61,5.08 -55.75,15.83 -58.69,55.18zm-28.05 297.49c4.72,-43.34 6.14,-54.91 -5.47,-76.81 -20.2,32.1 -29.7,53.55 5.47,76.81zm220.44 196.4c-33.33,-33.15 -39.32,-38.21 -78.26,-41.73 14.01,60.87 37.11,59.61 78.26,41.73zm387.17 -130.66c-1.79,13.86 -7.02,25.17 -18.78,32.7 -9.01,5.76 -18.74,8.56 -29.16,9.97 0.5,-1.2 1.01,-2.38 1.55,-3.53 8.81,-18.79 26.29,-29.81 46.39,-39.14zm36.11 -314.89c48.79,39.71 33.04,65.51 7.78,98.03 -18.26,-35.26 -11.51,-64.3 -7.78,-98.03zm3.04 249.15c-4.72,-43.34 -6.14,-54.91 5.47,-76.81 20.2,32.1 29.7,53.55 -5.47,76.81zm-220.44 196.4c33.33,-33.15 39.31,-38.21 78.26,-41.73 -14.01,60.87 -37.11,59.61 -78.26,41.73z"/>
 </g>
</svg>
