<?xml version="1.0" encoding="UTF-8"?>
<!DOCTYPE svg PUBLIC "-//W3C//DTD SVG 1.1//EN" "http://www.w3.org/Graphics/SVG/1.1/DTD/svg11.dtd">
<!-- Creator: CorelDRAW 2021 (64 Bit) -->
<svg xmlns="http://www.w3.org/2000/svg" xml:space="preserve" width="125px" height="112px" version="1.1" style="shape-rendering:geometricPrecision; text-rendering:geometricPrecision; image-rendering:optimizeQuality; fill-rule:evenodd; clip-rule:evenodd"
viewBox="0 0 2.56 2.3"
 xmlns:xlink="http://www.w3.org/1999/xlink"
 xmlns:xodm="http://www.corel.com/coreldraw/odm/2003">
 <defs>
  <style type="text/css">
   <![CDATA[
    .fil0 {fill:white;fill-rule:nonzero}
   ]]>
  </style>
 </defs>
 <g id="Camada_x0020_1">
  <metadata id="CorelCorpID_0Corel-Layer"/>
  <path class="fil0" d="M2.15 2.3c-0.28,0 -0.55,-0.05 -0.81,-0.15 -0.26,-0.1 -0.49,-0.24 -0.69,-0.42 -0.2,-0.17 -0.35,-0.38 -0.47,-0.62 -0.12,-0.24 -0.18,-0.5 -0.18,-0.78 0,-0.09 0.03,-0.17 0.08,-0.23 0.05,-0.07 0.12,-0.1 0.22,-0.1l0.3 0c0.05,0 0.1,0.02 0.13,0.05 0.03,0.03 0.06,0.08 0.07,0.14 0.01,0.07 0.03,0.13 0.04,0.2 0.02,0.07 0.04,0.13 0.06,0.18 0.02,0.05 0.02,0.09 0.01,0.13 0,0.04 -0.02,0.07 -0.06,0.11l-0.25 0.24c0.1,0.15 0.24,0.3 0.43,0.44 0.18,0.14 0.36,0.23 0.53,0.28l0.14 -0.3c0.02,-0.03 0.05,-0.06 0.08,-0.07 0.03,-0.02 0.07,-0.02 0.12,-0.02 0.06,0.01 0.11,0.01 0.17,0.01 0.05,0 0.11,0 0.18,-0.01 0.06,0 0.12,0.01 0.16,0.05 0.05,0.04 0.07,0.1 0.09,0.19l0.05 0.29c0,0 0,0.01 0.01,0.05 0,0.09 -0.04,0.17 -0.11,0.23 -0.08,0.07 -0.18,0.11 -0.3,0.11z"/>
 </g>
</svg>
